<?xml version="1.0" encoding="utf-8"?>
<!-- Generator: Adobe Illustrator 20.1.0, SVG Export Plug-In . SVG Version: 6.00 Build 0)  -->
<svg version="1.1" id="Layer_1" xmlns="http://www.w3.org/2000/svg" xmlns:xlink="http://www.w3.org/1999/xlink" x="0px" y="0px"
	 viewBox="0 0 36 48" enable-background="new 0 0 36 48" xml:space="preserve">
<title>0005_paperFolded_a</title>
<path d="M34.6,13.6L22.4,1.4C21.5,0.6,20.3,0.1,19,0H2C0.9,0,0,0.9,0,2v44c0,1.1,0.9,2,2,2h32c1.1,0,2-0.9,2-2V17
	C35.9,15.7,35.4,14.5,34.6,13.6z M32.5,15.7c0.1,0.1,0.1,0.2,0.2,0.3H21V4.2L32.5,15.7z M3,45V3h15v14c0,1.1,0.9,2,2,2h13v26H3z"/>
</svg>
