<?xml version="1.0" encoding="utf-8"?>
<!-- Generator: Adobe Illustrator 20.1.0, SVG Export Plug-In . SVG Version: 6.00 Build 0)  -->
<svg version="1.1" id="Layer_1" xmlns="http://www.w3.org/2000/svg" xmlns:xlink="http://www.w3.org/1999/xlink" x="0px" y="0px"
	 viewBox="0 0 42 48" enable-background="new 0 0 42 48" xml:space="preserve">
<title>0006_printer_a</title>
<path d="M39.8,12H35V1.7C35,0.8,34.2,0,33.3,0H8.7C7.8,0,7,0.8,7,1.7V12H2.2C1,12,0,13,0,14.2v19.7C0.1,35.1,1,36,2.2,36H7v10.3
	C7,47.2,7.8,48,8.7,48h24.6c0.9,0,1.7-0.8,1.7-1.7V36h4.8c1.2,0,2.2-1,2.2-2.2V14.2C42,13,41,12,39.8,12z M10,3h22v9H10V3z M32,45
	H10V29.9h22V45z M35.2,21C34,21,33,20,33,18.8s1-2.2,2.2-2.2s2.2,1,2.2,2.2C37.4,20,36.4,21,35.2,21z"/>
</svg>
