<?xml version="1.0" encoding="utf-8"?>
<!-- Generator: Adobe Illustrator 20.1.0, SVG Export Plug-In . SVG Version: 6.00 Build 0)  -->
<svg version="1.1" id="Layer_1" xmlns="http://www.w3.org/2000/svg" xmlns:xlink="http://www.w3.org/1999/xlink" x="0px" y="0px"
	 viewBox="0 0 48 48" enable-background="new 0 0 48 48" xml:space="preserve">
<title>0013_sendRight_a</title>
<path d="M47.2,24.9c1-0.5,1-1.3,0-1.8L28,13.5L25,12c-0.7-0.3-2.9-1.5-3.9-2L1.9,0.4C0.8-0.1,0,0.4,0,1.5V19c0,1.2,0.9,2.2,2.1,2.3
	L30.3,24c1.1,0.1,1.1,0.3,0,0.4L2.1,27C0.9,27.1,0,28,0,29.2v17.2c-0.1,0.6,0.3,1.2,0.9,1.3c0.3,0,0.6,0,0.9-0.2L21.1,38l3-1.5
	c0.7-0.3,2.9-1.5,3.9-2L47.2,24.9z"/>
</svg>
