<?xml version="1.0" encoding="utf-8"?>
<!-- Generator: Adobe Illustrator 20.1.0, SVG Export Plug-In . SVG Version: 6.00 Build 0)  -->
<svg version="1.1" id="Layer_1" xmlns="http://www.w3.org/2000/svg" xmlns:xlink="http://www.w3.org/1999/xlink" x="0px" y="0px"
	 viewBox="0 0 48 48" style="enable-background:new 0 0 48 48;" xml:space="preserve">
<path d="M44.7,3.2C42.6,1.1,39.8,0,37,0s-5.7,1.1-7.8,3.3l-26,26C-1.1,33.6-1,40.6,3.3,44.9c2.1,2,4.9,3.1,7.7,3.1s5.7-1.1,7.8-3.3
	l26-26C49.1,14.4,49.1,7.4,44.7,3.2z M42.7,16.6l-13,13L18.3,18.4l13-13C32.8,3.8,34.8,3,37,3c2.1,0,4.1,0.8,5.6,2.3S45,8.8,45,11
	C45,13.1,44.2,15.1,42.7,16.6z"/>
</svg>
