<svg id="Layer_1" data-name="Layer 1" xmlns="http://www.w3.org/2000/svg" viewBox="0 0 48 48"><title>0017_lightbulb_a</title><path d="M24,0A14.94,14.94,0,0,0,9.1,14.9a15.52,15.52,0,0,0,1.5,6.5,14.69,14.69,0,0,0,4.1,5.1A12.06,12.06,0,0,1,19,33.2,2.19,2.19,0,0,0,17.9,35v7.8A2.11,2.11,0,0,0,20,44.9h1a3,3,0,1,0,6,0h.9A2.11,2.11,0,0,0,30,42.8V35a2.06,2.06,0,0,0-1.1-1.8A12.4,12.4,0,0,1,33,26.6a16.23,16.23,0,0,0,4.4-5.3,14.43,14.43,0,0,0,1.5-6.5A14.92,14.92,0,0,0,24,0Zm7,24.4a15.76,15.76,0,0,0-3.9,5A11.75,11.75,0,0,0,25.9,33h-.2V20h2a1.54,1.54,0,0,0,1.5-1.5A1.56,1.56,0,0,0,27.6,17h-7a1.5,1.5,0,0,0,0,3h2V33h-.5a13.86,13.86,0,0,0-1.2-3.6A14.67,14.67,0,0,0,16.4,24h.1a12,12,0,0,1-4.3-9.1A11.78,11.78,0,0,1,24,3,11.93,11.93,0,0,1,35.9,14.9,12,12,0,0,1,31,24.4Z"/></svg>