<svg id="Layer_1" data-name="Layer 1" xmlns="http://www.w3.org/2000/svg" viewBox="0 0 48 48"><title>0019_folders_a</title><path d="M46.1,9.2H29.3a5.63,5.63,0,0,1-3.2-1.3L22.8,4.6a5.12,5.12,0,0,0-3.2-1.3L9,3A1.9,1.9,0,0,0,7.1,4.9V9h9.5a5.63,5.63,0,0,1,3.2,1.3l3.3,3.3a5.12,5.12,0,0,0,3.2,1.3H43.2a1.9,1.9,0,0,1,1.9,1.9V35.7h1.1a1.9,1.9,0,0,0,1.9-1.9V11A2,2,0,0,0,46.1,9.2ZM40,18a1.9,1.9,0,0,1,1.9,1.9V43a1.81,1.81,0,0,1-1.8,1.9L2,45a2,2,0,0,1-2-1.9V13.9A1.9,1.9,0,0,1,1.9,12H13a5.37,5.37,0,0,1,3.2,1.3l3.3,3.4A5.37,5.37,0,0,0,22.7,18Z"/></svg>