<?xml version="1.0" encoding="utf-8"?>
<!-- Generator: Adobe Illustrator 21.0.0, SVG Export Plug-In . SVG Version: 6.00 Build 0)  -->
<svg version="1.1" id="Layer_1" xmlns="http://www.w3.org/2000/svg" xmlns:xlink="http://www.w3.org/1999/xlink" x="0px" y="0px"
	 viewBox="0 0 48 48" enable-background="new 0 0 48 48" xml:space="preserve">
<path id="circle" d="M31.1,1.1C28.8,0.4,26.4,0,24,0C10.7,0,0,10.7,0,24s10.7,24,24,24s24-10.7,24-24C48,13.5,41.2,4.2,31.1,1.1z"/>
<path id="hands" fill="#FFFFFF" d="M32.4,31.8c-0.6,0.8-1.6,0.9-2.4,0.4c-0.2-0.1-0.3-0.2-0.4-0.4l-6.9-6.9
	c-0.5-0.5-0.7-1.2-0.6-1.9V11.4c-0.1-1,0.7-1.9,1.7-2c1,0.1,1.8,1,1.7,2v11.5l6.5,6.5C32.8,30,32.9,31,32.4,31.8z"/>
</svg>
