<?xml version="1.0" encoding="utf-8"?>
<!-- Generator: Adobe Illustrator 20.1.0, SVG Export Plug-In . SVG Version: 6.00 Build 0)  -->
<svg version="1.1" id="Layer_1" xmlns="http://www.w3.org/2000/svg" xmlns:xlink="http://www.w3.org/1999/xlink" x="0px" y="0px"
	 viewBox="0 0 48 48" style="enable-background:new 0 0 48 48;" xml:space="preserve">
<path d="M48,22.7L37.4,12.1c-1.3-1.3-3.6-1.3-4.9,0l-3.8,3.8l2.1,2.1l3.8-3.8c0.1-0.1,0.3-0.1,0.4-0.1s0.2,0,0.4,0.1L43,22
	c-1.2-0.6-2.8-1-4.8-1c-6.7,0-9.7,1.4-10.9,3.8c-1-0.4-2.2-0.7-3.3-0.7s-2.3,0.2-3.3,0.7C19.5,22.4,16.5,21,9.8,21
	c-2,0-3.6,0.3-4.8,1l7.7-7.7c0.2-0.2,0.5-0.2,0.7,0l3.8,3.8l2.1-2.1l-3.8-3.8c-1.4-1.4-3.6-1.4-4.9,0L0,22.7h0V26h0l1.7,1.7
	c0,0.3,0,0.5,0,0.8c0,4.8,4.8,8.3,9.8,8.3c5,0,9.8-3.5,9.8-8.3c0-0.3,0-0.5,0-0.8c0.8-0.4,1.7-0.6,2.7-0.6s1.9,0.2,2.7,0.6
	c0,0.3,0,0.5,0,0.8c0,4.8,4.8,8.3,9.8,8.3c5,0,9.8-3.5,9.8-8.3c0-0.3,0-0.6,0-0.8L48,26h0L48,22.7L48,22.7z M11.5,34.2
	c-3.4,0-7.1-2.3-7.1-5.6c0-3.2,0.9-4.9,5.4-4.9c8.8,0,8.8,2.3,8.8,4.9C18.6,31.9,14.9,34.2,11.5,34.2z M36.5,34.2
	c-3.4,0-7.1-2.3-7.1-5.6c0-2.6,0-4.9,8.8-4.9c3.5,0,5.4,0.8,5.4,4.9C43.6,31.9,39.8,34.2,36.5,34.2z"/>
</svg>
