<?xml version="1.0" encoding="utf-8"?>
<!-- Generator: Adobe Illustrator 21.1.0, SVG Export Plug-In . SVG Version: 6.00 Build 0)  -->
<svg version="1.1" id="Layer_1" xmlns="http://www.w3.org/2000/svg" xmlns:xlink="http://www.w3.org/1999/xlink" x="0px" y="0px"
	 viewBox="0 0 48 48" enable-background="new 0 0 48 48" xml:space="preserve">
<path d="M18.6,24c0-3,2.4-5.4,5.4-5.4s5.4,2.4,5.4,5.4S27,29.4,24,29.4l0,0C21,29.4,18.6,27,18.6,24C18.6,24,18.6,24,18.6,24z
	 M18.6,5.4C18.6,2.4,21,0,24,0c3,0,5.4,2.4,5.4,5.4c0,3-2.4,5.4-5.4,5.4c0,0,0,0,0,0C21,10.8,18.6,8.4,18.6,5.4
	C18.6,5.4,18.6,5.4,18.6,5.4z M18.6,42.6c0-3,2.4-5.4,5.4-5.4s5.4,2.4,5.4,5.4c0,3-2.4,5.4-5.4,5.4c0,0,0,0,0,0
	C21,48,18.6,45.6,18.6,42.6C18.6,42.6,18.6,42.6,18.6,42.6z"/>
</svg>
