<?xml version="1.0" encoding="utf-8"?>
<!-- Generator: Adobe Illustrator 20.1.0, SVG Export Plug-In . SVG Version: 6.00 Build 0)  -->
<svg version="1.1" id="Layer_1" xmlns="http://www.w3.org/2000/svg" xmlns:xlink="http://www.w3.org/1999/xlink" x="0px" y="0px"
	 viewBox="0 0 48 48" enable-background="new 0 0 48 48" xml:space="preserve">
<path d="M24.1,37.1c1-2.7,9.5-16.5,3.6-20.3c-3.3-2.1-7.8-0.8-11.3,1.7l-0.2,2.4c2.1-0.8,4.2-0.8,4.8,1c1.5,4.4-3.7,12-5.2,16
	C11.9,48.8,21.3,50,28,45.6l0.3-2.6C24.6,44.1,22,42.8,24.1,37.1z M27.8,0c2.9,0,5.3,2.4,5.3,5.3s-2.4,5.3-5.3,5.3s-5.3-2.4-5.3-5.3
	S24.9,0,27.8,0z"/>
</svg>
