<?xml version="1.0" encoding="utf-8"?>
<!-- Generator: Adobe Illustrator 20.1.0, SVG Export Plug-In . SVG Version: 6.00 Build 0)  -->
<svg version="1.1" id="Layer_1" xmlns="http://www.w3.org/2000/svg" xmlns:xlink="http://www.w3.org/1999/xlink" x="0px" y="0px"
	 viewBox="0 0 48 48" enable-background="new 0 0 48 48" xml:space="preserve">
<path id="circle" fill="#007CC3" d="M24,0c13.3,0,24,10.7,24,24S37.3,48,24,48S0,37.3,0,24C0,10.8,10.7,0,23.9,0H24z"/>
<path id="letterI" fill="#FFFFFF" d="M24.1,32.7c0.7-1.8,6.3-11,2.4-13.5c-2.2-1.4-5.2-0.5-7.6,1.2L18.7,22c1.4-0.5,2.8-0.5,3.2,0.7
	c1,2.9-2.5,8-3.5,10.7c-2.6,7.2,3.7,8.1,8.1,5.1l0.2-1.7C24.4,37.4,22.7,36.5,24.1,32.7z M26.5,8c1.9,0,3.5,1.6,3.5,3.5
	S28.4,15,26.5,15S23,13.4,23,11.5S24.6,8,26.5,8z"/>
</svg>
