<?xml version="1.0" encoding="utf-8"?>
<!-- Generator: Adobe Illustrator 20.1.0, SVG Export Plug-In . SVG Version: 6.00 Build 0)  -->
<svg version="1.1" id="Layer_1" xmlns="http://www.w3.org/2000/svg" xmlns:xlink="http://www.w3.org/1999/xlink" x="0px" y="0px"
	 viewBox="0 0 48 48" enable-background="new 0 0 48 48" xml:space="preserve">
<title>0050_calendar_a</title>
<path d="M43,6h-4V2.2C39,1,38,0,36.8,0h-1.7C33.9,0.1,33,1,33,2.2V6H15V2.2C15,1,14,0,12.8,0h-1.7C9.9,0.1,9,1,9,2.2V6H5
	C3.9,6,3,6.9,3,8v38c0,1.1,0.9,2,2,2h24c1.3-0.1,2.5-0.6,3.4-1.4l11.2-11.1c0.8-0.9,1.3-2.1,1.4-3.4V8C45,6.9,44.1,6,43,6z M6,21h36
	v10H30c-1.1,0-2,0.9-2,2v12H6V21z M31,43.8V34h9.8L31,43.8z"/>
</svg>
