<svg id="Layer_1" data-name="Layer 1" xmlns="http://www.w3.org/2000/svg" viewBox="0 0 48 48"><title>0053_provider_a</title><path d="M17,37a2,2,0,1,1-2,2A2,2,0,0,1,17,37Zm13-5.1v0Zm2-4.2v4.5a2.86,2.86,0,0,0,1.2,2.1A2,2,0,0,1,34,36v6a1,1,0,0,1-2,0V35H30v7a1,1,0,0,1-2,0V36a2,2,0,0,1,.8-1.7A2.86,2.86,0,0,0,30,32.2V27a20.45,20.45,0,0,0-12,0v8.1A4,4,0,1,1,13,39a4.08,4.08,0,0,1,3-3.9V27.7A20.37,20.37,0,0,0,3.7,46.4V48H44.3V46.4A20.37,20.37,0,0,0,32,27.7ZM24,0A11.44,11.44,0,0,1,35.5,11.5a11.5,11.5,0,0,1-23,0A11.44,11.44,0,0,1,24,0Z"/></svg>