<?xml version="1.0" encoding="utf-8"?>
<!-- Generator: Adobe Illustrator 23.0.4, SVG Export Plug-In . SVG Version: 6.00 Build 0)  -->
<svg version="1.1" id="sizes" xmlns="http://www.w3.org/2000/svg" xmlns:xlink="http://www.w3.org/1999/xlink" x="0px" y="0px"
	 viewBox="0 0 48 48" style="enable-background:new 0 0 48 48;" xml:space="preserve">
<style type="text/css">
	.st0{fill:#FFC20A;}
	.st1{fill:#231F20;}
</style>
<path class="st0" d="M0.7,20.1c-0.4-0.4-0.7-0.9-0.7-1.5c0-0.7,0.5-1.2,1.6-1.4L16.1,15l6.5-13.8C22.9,0.4,23.4,0,24,0
	s1.1,0.4,1.4,1.2L31.9,15l14.5,2.2c1.1,0.2,1.6,0.6,1.6,1.4c-0.1,0.6-0.3,1.1-0.8,1.5L36.8,30.8l2.5,15.1c0,0.2,0,0.4,0,0.6
	c0,0.4-0.1,0.8-0.3,1.1c-0.2,0.3-0.5,0.5-0.9,0.4c-0.4,0-0.8-0.1-1.2-0.4l-13-7.1l-12.9,7.1c-0.3,0.2-0.7,0.3-1.2,0.4
	c-0.4,0-0.7-0.1-0.9-0.4c-0.2-0.3-0.3-0.7-0.3-1.1c0-0.2,0-0.4,0.1-0.6l2.5-15.1L0.7,20.1z"/>
<path class="st1" d="M24,5.3l5.2,11l0.7,1.4l1.6,0.2l11.9,1.8l-8.7,8.9l-1.1,1.1l0.2,1.5l2,12.4l-10.4-5.7L24,37.1l-1.4,0.8
	l-10.4,5.7l2-12.4l0.2-1.5l-1.1-1.1l-8.7-8.9L16.5,18l1.6-0.2l0.7-1.4L24,5.3 M24,0c-0.6,0-1,0.4-1.4,1.2L16.1,15L1.6,17.2
	C0.5,17.4,0,17.9,0,18.6c0.1,0.6,0.3,1.1,0.7,1.5l10.5,10.7L8.7,45.9c0,0.2-0.1,0.4-0.1,0.6c0,0.4,0.1,0.8,0.3,1.1
	C9.2,47.9,9.5,48,9.9,48c0.4,0,0.8-0.1,1.2-0.4l13-7.1l13,7.1c0.3,0.2,0.7,0.3,1.2,0.4c0.3,0,0.7-0.1,0.9-0.4
	c0.2-0.3,0.3-0.7,0.3-1.1c0-0.2,0-0.4,0-0.6l-2.5-15.1l10.5-10.7c0.4-0.4,0.7-0.9,0.8-1.5c0-0.7-0.5-1.2-1.6-1.4L31.9,15L25.4,1.2
	C25,0.4,24.6,0,24,0z"/>
</svg>
