<?xml version="1.0" encoding="utf-8"?>
<!-- Generator: Adobe Illustrator 22.1.0, SVG Export Plug-In . SVG Version: 6.00 Build 0)  -->
<svg version="1.1" id="Layer_1" xmlns="http://www.w3.org/2000/svg" xmlns:xlink="http://www.w3.org/1999/xlink" x="0px" y="0px"
	 viewBox="0 0 48 48" enable-background="new 0 0 48 48" xml:space="preserve">
<path d="M48,18.6c0-0.75-0.54-1.21-1.62-1.39L31.9,15L25.41,1.24C25.05,0.41,24.58,0,24,0l0,0h0c-0.14,0-0.28,0.03-0.41,0.08
	c-0.39,0.16-0.73,0.54-1,1.16L16.1,15L1.62,17.21C0.54,17.39,0,17.86,0,18.6c0,0.42,0.24,0.91,0.72,1.45l10.5,10.71L8.74,45.88
	c-0.02,0.14-0.03,0.26-0.04,0.36s-0.01,0.18-0.01,0.24c0,0.42,0.1,0.78,0.3,1.07C9.19,47.85,9.49,48,9.89,48
	c0.35,0,0.73-0.12,1.15-0.36L24,40.5l0,0v0l12.95,7.14c0.4,0.24,0.79,0.36,1.15,0.36c0.38,0,0.68-0.15,0.88-0.44
	c0.2-0.29,0.3-0.65,0.3-1.07c0-0.26-0.01-0.46-0.03-0.6l-2.48-15.12l10.47-10.71C47.75,19.53,48,19.05,48,18.6z M34.63,28.66
	l-1.06,1.09l0.25,1.5l2.03,12.36l-10.4-5.73L24,37.07V5.28l5.19,11l0.68,1.45l1.58,0.24l11.87,1.81L34.63,28.66z"/>
</svg>
