<?xml version="1.0" encoding="utf-8"?>
<!-- Generator: Adobe Illustrator 20.1.0, SVG Export Plug-In . SVG Version: 6.00 Build 0)  -->
<svg version="1.1" id="Layer_1" xmlns="http://www.w3.org/2000/svg" xmlns:xlink="http://www.w3.org/1999/xlink" x="0px" y="0px"
	 viewBox="0 0 48 48" enable-background="new 0 0 48 48" xml:space="preserve">
<path fill="#FFFFFF" d="M24.1,0c0,0-0.1,0-0.1,0C10.7,0,0,10.7,0,24s10.7,24,24,24s24-10.7,24-24C48,10.8,37.3,0,24.1,0z M26,36h-4
	v-4h4V36z M30.6,23.2c-0.6,0.7-1.4,1.4-2.2,1.9c-1.2,0.8-2.4,1-2.4,1.8V28h-4v-0.8c0-1.8,0.9-3.5,2.4-4.5c0.6-0.3,1.1-0.6,1.6-0.9
	c1.6-0.8,2.2-2.7,1.4-4.3c-0.6-1.1-1.7-1.7-2.9-1.7H24c-1.6,0-3,1.3-3.2,2.9V19h-4c-0.1-3.1,2.1-5.9,5.1-6.6
	c0.9-0.3,1.9-0.4,2.8-0.4h0.2c3.8-0.2,7,2.8,7.2,6.6C32.2,20.3,31.6,21.9,30.6,23.2z"/>
</svg>
