<?xml version="1.0" encoding="utf-8"?>
<!-- Generator: Adobe Illustrator 21.0.0, SVG Export Plug-In . SVG Version: 6.00 Build 0)  -->
<svg version="1.1" id="Layer_1" xmlns="http://www.w3.org/2000/svg" xmlns:xlink="http://www.w3.org/1999/xlink" x="0px" y="0px"
	 viewBox="0 0 48 48" enable-background="new 0 0 48 48" xml:space="preserve">
<path d="M19,40h8v8h-8V40z M39.2,13.5c0,4.1-1.4,6.9-3,8.9c-1.4,1.7-3.1,2.9-4.4,3.8c-2.4,1.6-4.8,2.1-4.8,3.6V32h-8c0,0,0-1,0-1.5
	c0-3.8,2-7.1,5-8.9v0c1.2-0.7,2.4-1.3,3.2-1.9c2-1.1,3.4-3.2,3.4-5.7c0-3.5-2.9-6.4-6.4-6.4c-0.1,0-1,0-1,0c-3.3,0-6,2.6-6.5,5.7
	c0,0.1,0-0.4,0,0.6h-8C8.9,7,13.2,2.3,19,0.7C20.1,0.4,22.2,0,24.5,0c0.6,0-0.3,0,0.3,0C33.9,0,39.2,6.9,39.2,13.5z"/>
</svg>
