<svg id="Layer_1" data-name="Layer 1" xmlns="http://www.w3.org/2000/svg" viewBox="0 0 48 48"><title>0069_hourglass_i_heavyCircle</title><path d="M24,0A24,24,0,1,0,48,24,23.94,23.94,0,0,0,24,0Z"/><path d="M24,19a16.29,16.29,0,0,0,5.9-1.1,8.62,8.62,0,0,0,1.4-4.6v-2H16.8v1.9a8.22,8.22,0,0,0,1.5,4.7A15.62,15.62,0,0,0,24,19Zm.1,7.3-.4.2c-1.2.6-6.9,3.7-6.9,8.2v.4A15.91,15.91,0,0,1,24,33.4a16.5,16.5,0,0,1,7.4,1.8v-.5c0-4.5-5.8-7.6-6.9-8.2Zm11.3-15H34.3v2c0,5.5-4.1,9.2-7.2,11.3,2.6,1.6,7.1,5.1,7.3,10.1v2h1V40H12.7V36.7h1.1v-2c0-5.1,4.5-8.6,7.2-10.2-3.2-2.1-7.2-5.8-7.2-11.3V11.3H12.7V8H35.4Z" fill="#fff"/></svg>