<svg data-name="Layer 1" xmlns="http://www.w3.org/2000/svg" viewBox="0 0 48 48"><path d="M24 0a24 24 0 1024 24A23.94 23.94 0 0024 0z"/><path d="M24 19a16.29 16.29 0 005.9-1.1 8.62 8.62 0 001.4-4.6v-2H16.8v1.9a8.22 8.22 0 001.5 4.7A15.62 15.62 0 0024 19zm.1 7.3l-.4.2c-1.2.6-6.9 3.7-6.9 8.2v.4a15.91 15.91 0 017.2-1.7 16.5 16.5 0 017.4 1.8v-.5c0-4.5-5.8-7.6-6.9-8.2zm11.3-15h-1.1v2c0 5.5-4.1 9.2-7.2 11.3 2.6 1.6 7.1 5.1 7.3 10.1v2h1V40H12.7v-3.3h1.1v-2c0-5.1 4.5-8.6 7.2-10.2-3.2-2.1-7.2-5.8-7.2-11.3v-1.9h-1.1V8h22.7z" fill="#fff"/></svg>
