<?xml version="1.0" encoding="utf-8"?>
<!-- Generator: Adobe Illustrator 20.1.0, SVG Export Plug-In . SVG Version: 6.00 Build 0)  -->
<svg version="1.1" id="Layer_1" xmlns="http://www.w3.org/2000/svg" xmlns:xlink="http://www.w3.org/1999/xlink" x="0px" y="0px"
	 viewBox="0 0 48 48" enable-background="new 0 0 48 48" xml:space="preserve">
<path d="M46.1,12H37V4c0-1.1-0.9-2-2-2H13c-1.1,0-2,0.9-2,2v8H1.9c-1,0-1.9,0.8-1.9,1.9v29.3c0,1,0.8,1.9,1.9,1.9h44.3
	c1,0,1.9-0.8,1.9-1.9V13.9C48,12.8,47.2,12,46.1,12z M14,7h20v5H14V7z M35,27.6v2.8V31h-9v9h-0.6h-2.8H22v-9h-9v-0.6v-2.8V27h9v-9
	h0.6h2.8H26v9h9V27.6z"/>
</svg>
