<svg id="Layer_1" data-name="Layer 1" xmlns="http://www.w3.org/2000/svg" viewBox="0 0 48 48"><title>0081_stopwatch_a</title><path d="M31.1,31.4A1.51,1.51,0,1,1,29,33.5l-6.1-6.1a3,3,0,0,1-.5-.7.31.31,0,0,0-.1-.2c0-.1-.1-.3-.1-.4V15.3a1.69,1.69,0,0,1,1.5-1.8,1.69,1.69,0,0,1,1.5,1.8V25.6Zm14.3-4.8a21.26,21.26,0,0,1-4.6,13.3A21.42,21.42,0,1,1,20.9,5.4V2a2,2,0,0,1,2-2h2a2,2,0,0,1,2,2V5.4a18.63,18.63,0,0,1,3.4.7,24.25,24.25,0,0,1,6.4,3.3l2.2-2.2a2.05,2.05,0,0,1,2.9,0l1.4,1.4a2.05,2.05,0,0,1,0,2.9l-2.1,2.1A22,22,0,0,1,45.4,26.6Zm-3,0A18.34,18.34,0,0,0,29.5,9,20.32,20.32,0,0,0,24,8.2,18.4,18.4,0,1,0,38.4,38,18.16,18.16,0,0,0,42.4,26.6Z"/></svg>