<?xml version="1.0" encoding="utf-8"?>
<!-- Generator: Adobe Illustrator 22.1.0, SVG Export Plug-In . SVG Version: 6.00 Build 0)  -->
<svg version="1.1" id="Layer_1" xmlns="http://www.w3.org/2000/svg" xmlns:xlink="http://www.w3.org/1999/xlink" x="0px" y="0px"
	 viewBox="0 0 48 48" style="enable-background:new 0 0 48 48;" xml:space="preserve">
<style type="text/css">
	.st0{fill:#FFFFFF;}
</style>
<path class="st0" d="M24,2.3L45.7,24L24,45.7L2.3,24L24,2.3 M24,0c-0.3,0-0.6,0.1-0.8,0.3L0.3,23.2c-0.4,0.4-0.4,1.1,0,1.6
	l22.9,22.9c0.2,0.2,0.5,0.3,0.8,0.3s0.6-0.1,0.8-0.3l22.9-22.9c0.4-0.4,0.4-1.2,0-1.6L24.8,0.3C24.6,0.1,24.3,0,24,0L24,0z M24,9
	L13,20h8v19h6V20h8L24,9z"/>
</svg>
