<?xml version="1.0" encoding="utf-8"?>
<!-- Generator: Adobe Illustrator 22.1.0, SVG Export Plug-In . SVG Version: 6.00 Build 0)  -->
<svg version="1.1" id="Layer_1" xmlns="http://www.w3.org/2000/svg" xmlns:xlink="http://www.w3.org/1999/xlink" x="0px" y="0px"
	 viewBox="0 0 48 48" enable-background="new 0 0 48 48" xml:space="preserve">
<path d="M33.5,38.9H4v-0.2c0.113-2.79,1.337-5.419,3.4-7.3c1.388-1.215,2.308-2.878,2.6-4.7v-9.8
	c0.003-0.476,0.039-0.945,0.089-1.411L33.5,38.9z M18,42c0,3.314,2.686,6,6,6s6-2.686,6-6v-0.2H18V42z M19.6,3.7
	c-2.5,0.828-4.646,2.314-6.271,4.229l29.421,29.421C42.531,35.154,41.576,33.083,40,31.5c-1.17-1.311-1.904-2.954-2.1-4.7V17
	c0.021-6.023-3.864-11.364-9.6-13.2C28.067,1.611,26.201-0.038,24,0C21.822-0.019,19.955,1.551,19.6,3.7z M44.1,42L42,44.1L3.8,5.9
	l2.1-2.1L44.1,42z"/>
</svg>
