<?xml version="1.0" encoding="utf-8"?>
<!-- Generator: Adobe Illustrator 21.1.0, SVG Export Plug-In . SVG Version: 6.00 Build 0)  -->
<svg version="1.1" id="Layer_1" xmlns="http://www.w3.org/2000/svg" xmlns:xlink="http://www.w3.org/1999/xlink" x="0px" y="0px"
	 viewBox="0 0 48 48" enable-background="new 0 0 48 48" xml:space="preserve">
<path d="M24,3c0.7,0,1.3,0.5,1.4,1.2L25.8,6l1.7,0.6c4.5,1.5,7.5,5.7,7.5,10.4l0,0c0,0.1,0,0.2,0,0.3l0,0v0v9.5v0.2l0,0.2
	c0.3,2.4,1.4,4.7,3.2,6.4c0.7,0.7,1.2,1.5,1.6,2.3H8.3c0.4-0.8,0.9-1.6,1.6-2.3c1.7-1.7,2.8-4,3.2-6.4l0-0.2v-0.2v-9.5v0l0,0
	c0-0.1,0-0.2,0-0.3c0-4.7,3-8.8,7.5-10.3L22.2,6l0.3-1.8C22.7,3.5,23.3,3,24,3 M24,0c-2.2,0-4,1.6-4.4,3.7
	c-5.5,1.8-9.5,7.1-9.5,13.2c0,0.1,0,0.2,0,0.3v9.5c-0.2,1.8-1.1,3.4-2.3,4.7c-2,2-3.2,4.5-3.2,7.2v0.2h38.8v-0.2
	c0-2.7-1.2-5.3-3.2-7.2c-1.2-1.2-2.1-2.9-2.3-4.7v-9.5c0-0.1,0-0.2,0-0.3c0-6.2-4-11.4-9.5-13.2C28,1.6,26.2,0,24,0L24,0z
	 M26.6,44.3C26,45,25,45.5,24,45.5s-2-0.5-2.6-1.2H26.6 M30,41.8H18V42c0,3.3,2.7,6,6,6s6-2.7,6-6V41.8L30,41.8z"/>
</svg>
