<?xml version="1.0" encoding="utf-8"?>
<!-- Generator: Adobe Illustrator 20.1.0, SVG Export Plug-In . SVG Version: 6.00 Build 0)  -->
<svg version="1.1" id="Layer_1" xmlns="http://www.w3.org/2000/svg" xmlns:xlink="http://www.w3.org/1999/xlink" x="0px" y="0px"
	 viewBox="0 0 48 48" enable-background="new 0 0 48 48" xml:space="preserve">
<path d="M37,0H11C9.9,0,9,0.9,9,2v44c0,1.1,0.9,2,2,2h26c1.1,0,2-0.9,2-2V2C39,0.9,38.1,0,37,0z M21,3.9C21,3.4,21.4,3,21.9,3h4.1
	C26.6,3,27,3.4,27,3.9v0.1C27,4.6,26.6,5,26.1,5h-4.1C21.4,5,21,4.6,21,4.1V3.9z M24,45c-1.1,0-2-0.9-2-2c0-1.1,0.9-2,2-2s2,0.9,2,2
	C26,44.1,25.1,45,24,45z M36,38H12V8h24V38z"/>
</svg>
