<?xml version="1.0" encoding="utf-8"?>
<!-- Generator: Adobe Illustrator 20.1.0, SVG Export Plug-In . SVG Version: 6.00 Build 0)  -->
<svg version="1.1" id="Layer_1" xmlns="http://www.w3.org/2000/svg" xmlns:xlink="http://www.w3.org/1999/xlink" x="0px" y="0px"
	 viewBox="0 0 48 48" enable-background="new 0 0 48 48" xml:space="preserve">
<path id="device" d="M28,30.2V2c0-1.1-0.9-2-2-2H5C3.9,0,3,0.9,3,2v34c0,1.1,0.9,2,2,2h18.5L28,30.2z M12.5,3.9
	c0-0.5,0.4-0.9,0.9-0.9h4.1c0.5,0,0.9,0.4,0.9,0.9V4c0,0.5-0.4,0.9-0.9,0.9h-4.1C12.9,4.9,12.5,4.5,12.5,3.9L12.5,3.9z M6,8h19v20H6
	V8z M15.5,35c-1.1,0-2-0.9-2-2s0.9-2,2-2s2,0.9,2,2C17.5,34.1,16.6,35,15.5,35z"/>
<path id="triangle" fill="#E50000" d="M21.6,48c-0.5,0-0.8-0.4-0.5-0.9l11.4-19.8c0.3-0.5,0.7-0.5,1,0l11.4,19.8
	c0.3,0.5,0,0.9-0.5,0.9H21.6z"/>
<path id="exclamation" fill="#FFFFFF" d="M32,46h2v-2h-2V46z M32,33v9h2v-9H32z"/>
</svg>
