<?xml version="1.0" encoding="utf-8"?>
<!-- Generator: Adobe Illustrator 20.1.0, SVG Export Plug-In . SVG Version: 6.00 Build 0)  -->
<svg version="1.1" id="Layer_1" xmlns="http://www.w3.org/2000/svg" xmlns:xlink="http://www.w3.org/1999/xlink" x="0px" y="0px"
	 viewBox="0 0 48 48" enable-background="new 0 0 48 48" xml:space="preserve">
<path id="paper" d="M30.1,8.8l-7.5-7.4C21.8,0.6,20.3,0,19.2,0H4.5c-1.1,0-2,0.9-2,2v34c0,1.1,0.9,2,2,2H25l3-3H5.5V3h13v9
	c0,1.1,0.9,2,2,2h8v20.5l3-3V12.2C31.5,11.1,30.9,9.5,30.1,8.8z M21.5,4.5l6.5,6.4c0,0,0,0.1,0.1,0.1h-6.5V4.5z"/>
<path id="pencil" d="M21.5,48L21.5,48l2.8-6.4l3.5,3.5L21.5,48z M43.9,29.3l1.4-1.4c0.3-0.3,0.3-0.9,0-1.2l-2.4-2.4
	c-0.3-0.3-0.9-0.3-1.2,0l-1.4,1.4L43.9,29.3z M39.2,26.7L25.3,40.6l3.6,3.6l13.9-13.9L39.2,26.7z"/>
</svg>
