<?xml version="1.0" encoding="utf-8"?>
<!-- Generator: Adobe Illustrator 20.1.0, SVG Export Plug-In . SVG Version: 6.00 Build 0)  -->
<svg version="1.1" id="Layer_1" xmlns="http://www.w3.org/2000/svg" xmlns:xlink="http://www.w3.org/1999/xlink" x="0px" y="0px"
	 viewBox="0 0 48 48" enable-background="new 0 0 48 48" xml:space="preserve">
<path d="M34,20v3H14v-3H34L34,20z M34,28H14v3h20V28L34,28z M34,36H14v3h20V36L34,36z M42,8v38c0,1.1-0.9,2-2,2H8c-1.1,0-2-0.9-2-2
	V8c0-1.1,0.9-2,2-2h5l1.1-1.4C16.6,1.7,20.2,0,24,0s7.4,1.7,9.8,4.6L35,6h5C41.1,6,42,6.9,42,8z M22.3,4.7c0,0.5,0.3,1,0.7,1.3h2
	c0.4-0.3,0.7-0.8,0.7-1.3C25.7,3.7,24.9,3,24,3S22.3,3.7,22.3,4.7z M39,9h-3v3c0,1.1-0.9,2-2,2H14c-1.1,0-2-0.9-2-2V9H9v36h30V9z"/>
</svg>
