<?xml version="1.0" encoding="utf-8"?>
<!-- Generator: Adobe Illustrator 20.1.0, SVG Export Plug-In . SVG Version: 6.00 Build 0)  -->
<svg version="1.1" id="Layer_1" xmlns="http://www.w3.org/2000/svg" xmlns:xlink="http://www.w3.org/1999/xlink" x="0px" y="0px"
	 viewBox="0 0 48 48" enable-background="new 0 0 48 48" xml:space="preserve">
<path d="M47.4,43.3L33.8,29.6c2.2-3.1,3.6-6.8,3.6-10.9C37.3,8.4,29,0,18.7,0S0,8.4,0,18.7s8.4,18.6,18.7,18.6
	c4.1,0,7.9-1.3,10.9-3.6l13.6,13.6c0.8,0.8,2,0.8,2.8,0l1.4-1.4C48.2,45.3,48.2,44,47.4,43.3z M2.9,18.7C2.9,10,10,2.9,18.7,2.9
	S34.4,10,34.4,18.7s-7.1,15.8-15.8,15.8S2.9,27.4,2.9,18.7z M7,17h23v3H7V17z"/>
</svg>
