<?xml version="1.0" encoding="utf-8"?>
<!-- Generator: Adobe Illustrator 20.1.0, SVG Export Plug-In . SVG Version: 6.00 Build 0)  -->
<svg version="1.1" id="Layer_1" xmlns="http://www.w3.org/2000/svg" xmlns:xlink="http://www.w3.org/1999/xlink" x="0px" y="0px"
	 viewBox="0 0 48 48" enable-background="new 0 0 48 48" xml:space="preserve">
<path d="M43.9,40.6c-0.5,0-0.9,0.1-1.3,0.2l-8.5-8.5c1.5-1.9,2.6-4.2,2.8-6.8h2c0.1,0.1,0.2,0.2,0.3,0.3c1,1,2.6,1,3.7,0
	c1.1-1,1-2.6,0-3.7c-1-1.1-2.6-1-3.7,0c-0.1,0.1-0.2,0.2-0.3,0.3h-2c-0.3-2.6-1.3-4.8-2.8-6.8l2.3-2.3c0.6,0.3,1.3,0.5,2,0.5
	c2.6,0,4.6-2.1,4.6-4.6s-2.1-4.6-4.6-4.6c-2.6,0-4.6,2.1-4.6,4.6c0,0.7,0.2,1.4,0.5,2L32,13.4c-1.9-1.5-4.2-2.6-6.8-2.8V4.7
	c0.1-0.1,0.2-0.2,0.3-0.3c1-1,1-2.6,0-3.7s-2.6-1-3.7,0c-1.1,1-1,2.6,0,3.7c0.1,0.1,0.2,0.2,0.3,0.3v5.9c-2.6,0.3-4.8,1.3-6.8,2.8
	L7.2,5.2c0.2-0.4,0.2-0.8,0.2-1.3c0-2-1.6-3.7-3.7-3.7S0.1,2,0.1,4s1.6,3.7,3.7,3.7c0.5,0,0.9-0.1,1.3-0.2l8.5,8.5
	c-1.5,1.9-2.6,4.2-2.8,6.8H9c-0.6-1.8-2.3-3.2-4.3-3.2c-2.5-0.2-4.5,1.9-4.5,4.4s2.1,4.6,4.6,4.6c2,0,3.8-1.3,4.3-3.2h1.6
	c0.3,2.6,1.3,4.8,2.8,6.8l-5,5c-0.1,0-0.3,0-0.4,0c-1.4,0-2.6,1.2-2.6,2.6c0,1.4,1.2,2.6,2.6,2.6s2.6-1.2,2.6-2.6c0-0.1,0-0.3,0-0.4
	l5-5c1.9,1.5,4.2,2.6,6.8,2.8v1.6c-1.8,0.6-3.2,2.3-3.2,4.3c0,2.6,2.1,4.6,4.6,4.6s4.6-2.1,4.6-4.6c0-2-1.3-3.8-3.2-4.3v-1.6
	c2.6-0.3,4.8-1.3,6.8-2.8l8.5,8.5c-0.2,0.4-0.2,0.8-0.2,1.3c0,2,1.6,3.7,3.7,3.7c2.1,0,3.7-1.6,3.7-3.7C47.9,42.3,46,40.6,43.9,40.6
	z"/>
</svg>
