<?xml version="1.0" encoding="utf-8"?>
<!-- Generator: Adobe Illustrator 20.1.0, SVG Export Plug-In . SVG Version: 6.00 Build 0)  -->
<svg version="1.1" id="Layer_1" xmlns="http://www.w3.org/2000/svg" xmlns:xlink="http://www.w3.org/1999/xlink" x="0px" y="0px"
	 viewBox="0 0 48 48" enable-background="new 0 0 48 48" xml:space="preserve">
<path d="M47.1,38l-10.1-7c-0.7-0.5-1.6-0.5-2.3-0.1l-6,3.6c-2.4-1.7-5.2-4-8.2-7c-3-3-5.4-5.9-7.1-8.4l3.5-6
	c0.4-0.7,0.4-1.6-0.1-2.3L10,0.9C9.2-0.1,7.7-0.3,6.8,0.6L1.2,5.8c0,0-0.3,0.3-0.4,0.4c-0.7,0.9-1,2-0.7,3.1
	c0.2,1.1,2.5,11.3,15,23.8c12.3,12.3,22.2,14.6,23.6,14.9c1.1,0.3,2.3,0,3.2-0.7c0,0,0.4-0.3,0.4-0.4l5.1-5.5
	C48.3,40.3,48.1,38.8,47.1,38z"/>
</svg>
