<?xml version="1.0" encoding="utf-8"?>
<!-- Generator: Adobe Illustrator 21.1.0, SVG Export Plug-In . SVG Version: 6.00 Build 0)  -->
<svg version="1.1" id="Layer_1" xmlns="http://www.w3.org/2000/svg" xmlns:xlink="http://www.w3.org/1999/xlink" x="0px" y="0px"
	 viewBox="0 0 48 48" enable-background="new 0 0 48 48" xml:space="preserve">
<path d="M2.4,31.9l10-1.8c0.7-0.1,1.2-0.6,1.4-1.3l1.4-5.6c2.4-0.4,5.4-0.7,8.9-0.7s6.6,0.3,9,0.8l1.5,5.5c0.2,0.6,0.7,1.2,1.4,1.3
	l9.7,1.8c1.1,0.1,2-0.6,2-1.7l0.2-6.3c0,0,0-0.4,0-0.5c-0.1-0.9-0.6-1.8-1.4-2.2c-0.8-0.5-8.1-5.1-22.6-5.1
	c-14.4,0-21.5,4.4-22.5,5.1c-0.8,0.5-1.3,1.3-1.5,2.3c0,0-0.1,0.4,0,0.5l0.2,6.2C0.4,31.3,1.4,32,2.4,31.9z"/>
</svg>
