<?xml version="1.0" encoding="utf-8"?>
<!-- Generator: Adobe Illustrator 21.0.0, SVG Export Plug-In . SVG Version: 6.00 Build 0)  -->
<svg version="1.1" id="Layer_1" xmlns="http://www.w3.org/2000/svg" xmlns:xlink="http://www.w3.org/1999/xlink" x="0px" y="0px"
	 viewBox="0 0 48 48" enable-background="new 0 0 48 48" xml:space="preserve">
<path id="_x34_8_1_" d="M23.5,1.5C22.6,0.7,21.9,0,21.9,0s-1,0-2.2,0H2.2C1,0,0,0,0,0s0,1,0,2.2v17.5c0,1.2,0,2.2,0,2.2
	s0.7,0.7,1.5,1.5l23.8,23.8c0.8,0.8,2.2,0.8,3.1,0l18.9-18.9c0.8-0.8,0.8-2.2,0-3.1L23.5,1.5z M13.7,18.2c-2.5,0-4.5-2-4.5-4.5
	s2-4.5,4.5-4.5c2.5,0,4.5,2,4.5,4.5S16.2,18.2,13.7,18.2z"/>
</svg>
