<?xml version="1.0" encoding="utf-8"?>
<!-- Generator: Adobe Illustrator 21.0.0, SVG Export Plug-In . SVG Version: 6.00 Build 0)  -->
<svg version="1.1" id="Layer_1" xmlns="http://www.w3.org/2000/svg" xmlns:xlink="http://www.w3.org/1999/xlink" x="0px" y="0px"
	 viewBox="0 0 48 48" enable-background="new 0 0 48 48" xml:space="preserve">
<g>
	<g id="_x34_8_47_">
		<circle cx="19.1" cy="8.7" r="8.7"/>
	</g>
	<path d="M34.2,31.9c-0.4-6.9-6-12.3-13-12.3H17c-7.2,0-13,5.8-13,13V37h20.2C26.5,34.2,30,32.3,34.2,31.9z"/>
	<path d="M48,36.3l-6.8-7.1V34c0,0-3.5,0-4.5,0C28.5,34,24,39.1,24,45.2c0,0.8,0,1.6,0,2.4c1-5,4.4-9.1,9.7-9.1h7.5v4.7L48,36.3z"/>
</g>
</svg>
