<?xml version="1.0" encoding="utf-8"?>
<!-- Generator: Adobe Illustrator 21.0.0, SVG Export Plug-In . SVG Version: 6.00 Build 0)  -->
<svg version="1.1" id="Layer_1" xmlns="http://www.w3.org/2000/svg" xmlns:xlink="http://www.w3.org/1999/xlink" x="0px" y="0px"
	 viewBox="0 0 48 48" enable-background="new 0 0 48 48" xml:space="preserve">
<path d="M40.7,5H7.3C6.8,5,6.4,5.3,6.2,5.7L0,20v0v0V41c0,1.1,0.9,2,2,2H46c1.1,0,2-0.9,2-2V20.1v0v0L41.8,5.7
	C41.6,5.3,41.2,5,40.7,5z M29.7,20c0,3.1-2.6,5.6-5.7,5.6s-5.6-2.5-5.7-5.6H3.3v0L8.5,8h31.1l5.2,12v0H29.7z"/>
</svg>
