<?xml version="1.0" encoding="utf-8"?>
<!-- Generator: Adobe Illustrator 21.0.0, SVG Export Plug-In . SVG Version: 6.00 Build 0)  -->
<svg version="1.1" id="Layer_1" xmlns="http://www.w3.org/2000/svg" xmlns:xlink="http://www.w3.org/1999/xlink" x="0px" y="0px"
	 viewBox="0 0 48 48" enable-background="new 0 0 48 48" xml:space="preserve">
<path id="file" fill="#FFFFFF" d="M45,24c0-9.3-5.9-17.3-14.8-20.1C28.2,3.3,26.1,3,24,3C12.4,3,3,12.4,3,24s9.4,21,21,21
	c6.5,0,12.5-2.9,16.5-8C43.4,33.3,45,28.8,45,24z"/>
<path id="outline" d="M48,24c0,5.5-1.8,10.6-5.2,14.9C38.2,44.7,31.4,48,24,48C10.8,48,0,37.2,0,24S10.8,0,24,0
	c2.4,0,4.8,0.4,7.1,1.1C41.2,4.2,48,13.4,48,24z M45,24c0-9.3-5.9-17.3-14.8-20.1C28.2,3.3,26.1,3,24,3C12.4,3,3,12.4,3,24
	s9.4,21,21,21c6.5,0,12.5-2.9,16.5-8C43.4,33.3,45,28.8,45,24z"/>
</svg>
