<?xml version="1.0" encoding="utf-8"?>
<!-- Generator: Adobe Illustrator 21.0.0, SVG Export Plug-In . SVG Version: 6.00 Build 0)  -->
<svg version="1.1" id="Layer_1" xmlns="http://www.w3.org/2000/svg" xmlns:xlink="http://www.w3.org/1999/xlink" x="0px" y="0px"
	 viewBox="0 0 48 48" enable-background="new 0 0 48 48" xml:space="preserve">
<path id="wifi" d="M19,17.9c-4.1,0-7.8,1.7-10.5,4.3l-3.1-3.1c3.5-3.5,8.3-5.6,13.6-5.6s10.1,2.1,13.6,5.6l-2.9,2.9
	c-0.1,0-0.1,0.1-0.2,0.1C26.7,19.5,23.1,17.9,19,17.9z M34.7,17l3.3-3.3C33.1,9,26.4,6,19,6S4.9,9,0,13.7L3.3,17
	c4-4,9.6-6.5,15.7-6.5S30.7,13,34.7,17z M21.2,28.9c-0.7-0.4-1.4-0.6-2.2-0.6c-1.2,0-2.3,0.5-3.1,1.3l3.1,3.1l1.1-1.1
	C20.4,30.7,20.8,29.8,21.2,28.9z M23,26.5c1-1.1,2.2-2.1,3.5-2.9c-2-1.6-4.6-2.6-7.4-2.6c-3.2,0-6.2,1.3-8.4,3.4l3.1,3.1
	c1.3-1.3,3.2-2.2,5.2-2.2C20.5,25.3,21.8,25.7,23,26.5z"/>
<path id="cancel" d="M34,24c-6.6,0-12,5.4-12,12c0,6.6,5.4,12,12,12c6.6,0,12-5.4,12-12C46,29.4,40.6,24,34,24z M25,36c0-5,4-9,9-9
	c1.9,0,3.7,0.6,5.2,1.7L26.7,41.2C25.6,39.7,25,37.9,25,36z M34,45c-1.9,0-3.7-0.6-5.2-1.7l12.5-12.5c1,1.5,1.7,3.3,1.7,5.2
	C43,41,39,45,34,45z"/>
</svg>
