<?xml version="1.0" encoding="utf-8"?>
<!-- Generator: Adobe Illustrator 21.0.0, SVG Export Plug-In . SVG Version: 6.00 Build 0)  -->
<svg version="1.1" id="Layer_1" xmlns="http://www.w3.org/2000/svg" xmlns:xlink="http://www.w3.org/1999/xlink" x="0px" y="0px"
	 viewBox="0 0 48 48" enable-background="new 0 0 48 48" xml:space="preserve">
<path id="calendar" d="M31,5V1.8c0-1-0.8-1.8-1.8-1.8h-1.5c-1,0-1.8,0.8-1.8,1.8V5H11V1.8c0-1-0.8-1.8-1.8-1.8H7.8
	C6.8,0,6,0.8,6,1.8V5H2v33h19v-3H5V17h27v4h3V5H31z"/>
<path id="reload" d="M48,33v-7.3l-2.7,2.7C43.1,25.7,39.7,24,36,24c-6.6,0-12,5.4-12,12c0,6.6,5.4,12,12,12c3.5,0,6.6-1.5,8.7-3.8
	L43,42.4c-1.7,1.9-4.2,3.1-7,3.1c-5.2,0-9.5-4.3-9.5-9.5c0-5.2,4.3-9.5,9.5-9.5c3,0,5.8,1.5,7.5,3.7L40.7,33H48z"/>
</svg>
