<?xml version="1.0" encoding="utf-8"?>
<!-- Generator: Adobe Illustrator 21.0.0, SVG Export Plug-In . SVG Version: 6.00 Build 0)  -->
<svg version="1.1" id="Layer_1" xmlns="http://www.w3.org/2000/svg" xmlns:xlink="http://www.w3.org/1999/xlink" x="0px" y="0px"
	 viewBox="0 0 48 48" enable-background="new 0 0 48 48" xml:space="preserve">
<path fill="#868A8C" d="M24,1C24,1,24.1,1,24,1l23,22.9c0,0,0,0.1,0,0.2L24.1,47c0,0,0,0-0.1,0s-0.1,0-0.1,0L1,24.1c0,0,0-0.1,0-0.2
	L24,1C23.9,1,24,1,24,1 M24,0c-0.3,0-0.6,0.1-0.8,0.3L0.3,23.2c-0.4,0.4-0.4,1.1,0,1.6l22.9,22.9c0.2,0.2,0.5,0.3,0.8,0.3
	s0.6-0.1,0.8-0.3l22.9-22.9c0.4-0.4,0.4-1.1,0-1.6L24.8,0.3C24.6,0.1,24.3,0,24,0L24,0z M24.9,12c-0.3,0,0.1,0-0.2,0
	c-1.1,0-2.2,0.2-2.8,0.4c-2.9,0.8-5.1,3.1-5.1,6.6h4c0-0.5,0-0.2,0-0.3c0.2-1.6,1.6-2.9,3.2-2.9c0,0,0.4,0,0.5,0
	c1.8,0,3.2,1.4,3.2,3.2c0,1.2-0.7,2.3-1.7,2.8c-0.4,0.3-1,0.6-1.6,0.9l0,0c-1.4,1-2.4,2.7-2.4,4.5c0,0.3,0,0.8,0,0.8h4v-1.1
	c0-0.8,1.2-1,2.4-1.8c0.7-0.5,1.5-1,2.2-1.9c0.8-1,1.5-2.4,1.5-4.5C32.1,15.4,29.5,12,24.9,12z M22,36h4v-4h-4V36z"/>
<rect x="-37" y="-151.8" fill="#434A4D" width="20" height="19.7"/>
<rect x="-12.5" y="-151.8" fill="#4E5558" width="20" height="19.7"/>
<rect x="12.4" y="-151.8" fill="#595F62" width="20" height="19.7"/>
<rect x="37.7" y="-151.8" fill="#64696C" width="20" height="19.7"/>
<rect x="63.5" y="-151.8" fill="#6F7477" width="20" height="19.7"/>
</svg>
