<?xml version="1.0" encoding="utf-8"?>
<!-- Generator: Adobe Illustrator 21.1.0, SVG Export Plug-In . SVG Version: 6.00 Build 0)  -->
<svg version="1.1" id="Layer_1" xmlns="http://www.w3.org/2000/svg" xmlns:xlink="http://www.w3.org/1999/xlink" x="0px" y="0px"
	 viewBox="0 0 48 48" enable-background="new 0 0 48 48" xml:space="preserve">
<path d="M29.8,35l2.4,2.4c-2.6,0.8-5.4,1.3-8.3,1.3c-10.5,0-19.5-6-24-14.7c2.1-4,5.1-7.5,8.8-10l2.1,2.2c-3,2-5.6,4.6-7.5,7.9
	c4.3,7.3,12,11.7,20.6,11.7C26,35.7,28,35.5,29.8,35z M24,12.3c8.5,0,16.3,4.5,20.6,11.7c-1.9,3.2-4.5,5.9-7.5,7.9l2.1,2.1
	c3.7-2.5,6.8-6,8.8-10C43.5,15.3,34.5,9.3,24,9.3c-2.9,0-5.7,0.5-8.3,1.3l2.4,2.4C20,12.5,22,12.3,24,12.3z M27.3,32.5L15.5,20.7
	c-0.4,1-0.6,2.2-0.6,3.3c0,5,4.1,9.1,9.1,9.1C25.2,33.1,26.3,32.9,27.3,32.5z M20.7,15.5l11.8,11.8c0.4-1,0.6-2.2,0.6-3.3
	c0-5-4.1-9.1-9.1-9.1C22.8,14.9,21.7,15.1,20.7,15.5z M3.8,5.9l38.2,38.2l2.1-2.1L5.9,3.8L3.8,5.9z"/>
</svg>
