<?xml version="1.0" encoding="utf-8"?>
<!-- Generator: Adobe Illustrator 21.1.0, SVG Export Plug-In . SVG Version: 6.00 Build 0)  -->
<svg version="1.1" id="Layer_1" xmlns="http://www.w3.org/2000/svg" xmlns:xlink="http://www.w3.org/1999/xlink" x="0px" y="0px"
	 viewBox="0 0 48 48" enable-background="new 0 0 48 48" xml:space="preserve">
<path d="M33.2,24c0,5.1-4.1,9.2-9.2,9.2s-9.2-4.1-9.2-9.2s4.1-9.2,9.2-9.2S33.2,18.9,33.2,24z M24,12.2c-8.5,0-16.5,4.6-20.6,11.8
	C7.5,31.2,15.5,35.7,24,35.7S40.5,31.2,44.6,24C40.5,16.8,32.5,12.2,24,12.2 M24,9.2c10.6,0,19.7,6,24,14.8
	c-4.3,8.7-13.4,14.8-24,14.8S4.3,32.7,0,24C4.3,15.3,13.4,9.2,24,9.2L24,9.2z"/>
</svg>
