<?xml version="1.0" encoding="utf-8"?>
<!-- Generator: Adobe Illustrator 21.1.0, SVG Export Plug-In . SVG Version: 6.00 Build 0)  -->
<svg version="1.1" id="Layer_1" xmlns="http://www.w3.org/2000/svg" xmlns:xlink="http://www.w3.org/1999/xlink" x="0px" y="0px"
	 viewBox="0 0 48 48" enable-background="new 0 0 48 48" xml:space="preserve">
<path d="M15,24.1V9c0-5,4-9,9-9s9,4,9,9v15.1c0,5-4,9-9,9S15,29.1,15,24.1z M36,22v2.3c0,6.6-5.4,12-12,12s-12-5.4-12-12V22H9v2.3
	c0,7.8,5.9,14.2,13.5,14.9V45H18v3h4.5h3H30v-3h-4.5v-5.8C33.1,38.5,39,32.1,39,24.3V22H36z"/>
</svg>
