<?xml version="1.0" encoding="utf-8"?>
<!-- Generator: Adobe Illustrator 21.1.0, SVG Export Plug-In . SVG Version: 6.00 Build 0)  -->
<svg version="1.1" id="Layer_1" xmlns="http://www.w3.org/2000/svg" xmlns:xlink="http://www.w3.org/1999/xlink" x="0px" y="0px"
	 viewBox="0 0 48 48" enable-background="new 0 0 48 48" xml:space="preserve">
<path d="M15,24.1v-3.7l12.2,12.2c-1,0.4-2,0.6-3.2,0.6C19,33.1,15,29.1,15,24.1z M33,24.1V9c0-2.5-1-4.7-2.6-6.4C28.7,1,26.5,0,24,0
	c-5,0-9,4-9,9v0.6l17.5,17.5C32.8,26.2,33,25.2,33,24.1z M31.8,37.1l-2.2-2.2c-1.7,0.9-3.5,1.4-5.6,1.4c-6.6,0-12-5.4-12-12V22H9
	v2.3c0,7.8,5.9,14.2,13.5,14.9V45H18v3h4.5h3H30v-3h-4.5v-5.8C27.8,39,29.9,38.3,31.8,37.1z M39,24.3V22h-3v2.3
	c0,1.8-0.4,3.6-1.2,5.1l2.2,2.2C38.3,29.5,39,27,39,24.3z M5.9,3.8L3.8,5.9l38.2,38.2l2.1-2.1L5.9,3.8z"/>
</svg>
