<?xml version="1.0" encoding="utf-8"?>
<!-- Generator: Adobe Illustrator 21.0.2, SVG Export Plug-In . SVG Version: 6.00 Build 0)  -->
<svg version="1.1" id="Layer_1" xmlns="http://www.w3.org/2000/svg" xmlns:xlink="http://www.w3.org/1999/xlink" x="0px" y="0px"
	 viewBox="0 0 48 48" enable-background="new 0 0 48 48" xml:space="preserve">
<path id="phoneArrowRight" d="M36.9,42.7l-4,4.3c-0.1,0.1-0.3,0.3-0.3,0.3c-0.7,0.6-1.6,0.8-2.5,0.6c-1.1-0.2-8.8-2-18.4-11.6
	C2.1,26.6,0.2,18.7,0.1,17.8c-0.2-0.8,0-1.7,0.6-2.4c0,0,0.2-0.2,0.3-0.3l4.4-4.1c0.7-0.7,1.9-0.6,2.5,0.3l5.4,7.9
	c0.4,0.5,0.4,1.2,0.1,1.8l-2.8,4.6c1.4,1.9,3.2,4.2,5.5,6.5c2.3,2.3,4.5,4.1,6.4,5.4l4.7-2.8c0.5-0.3,1.2-0.3,1.8,0.1l7.9,5.4
	C37.5,40.8,37.6,42,36.9,42.7z M48,16.5l-6.8-7.1v4.8c0,0-3.5,0-4.5,0c-8.2,0-12.7,5.1-12.7,11.2c0,0.8,0,1.6,0,2.4
	c1-5,4.4-9.1,9.7-9.1h7.5v4.7L48,16.5z"/>
</svg>
