<?xml version="1.0" encoding="utf-8"?>
<!-- Generator: Adobe Illustrator 21.0.2, SVG Export Plug-In . SVG Version: 6.00 Build 0)  -->
<svg version="1.1" id="Layer_1" xmlns="http://www.w3.org/2000/svg" xmlns:xlink="http://www.w3.org/1999/xlink" x="0px" y="0px"
	 viewBox="0 0 48 48" enable-background="new 0 0 48 48" xml:space="preserve">
<path id="phoneDownCurvedArrow" d="M43,33.5l-0.2,5c0,0.8-0.8,1.5-1.6,1.3l-7.9-1.4c-0.5-0.1-0.9-0.5-1.1-1L31.1,33
	c-2-0.3-4.4-0.6-7.2-0.6c-2.8,0-5.1,0.2-7,0.6l-1.1,4.4c-0.1,0.5-0.6,0.9-1.1,1l-7.9,1.4C6,40,5.2,39.4,5.2,38.6L5,33.6
	c0-0.1,0-0.4,0-0.4c0.1-0.8,0.5-1.4,1.1-1.8c0.8-0.5,6.4-4,17.8-4c11.6,0,17.4,3.7,18,4.1c0.6,0.4,1,1,1.1,1.8
	C43,33.3,43,33.5,43,33.5z M16.1,14.1l9,9L37,11.3l-2-2l-9.8,9.8l-7-7l0.5-0.5l3.5-3.5H12v10.1l3.4-3.4L16.1,14.1z"/>
</svg>
