<?xml version="1.0" encoding="utf-8"?>
<!-- Generator: Adobe Illustrator 21.1.0, SVG Export Plug-In . SVG Version: 6.00 Build 0)  -->
<svg version="1.1" id="Layer_1" xmlns="http://www.w3.org/2000/svg" xmlns:xlink="http://www.w3.org/1999/xlink" x="0px" y="0px"
	 viewBox="0 0 48 48" enable-background="new 0 0 48 48" xml:space="preserve">
<path d="M29,0v48L15,34H0V14h15L29,0z M35.3,12.7l-2.1,2.1c2.3,2.3,3.8,5.6,3.8,9.2c0,3.6-1.5,6.8-3.8,9.2l2.1,2.1
	C38.2,32.4,40,28.4,40,24C40,19.6,38.2,15.6,35.3,12.7z M41,7l-2.1,2.1C42.6,13,45,18.2,45,24c0,5.8-2.4,11-6.2,14.8L41,41
	c4.3-4.3,7-10.3,7-17S45.3,11.4,41,7z"/>
</svg>
