<?xml version="1.0" encoding="utf-8"?>
<!-- Generator: Adobe Illustrator 21.1.0, SVG Export Plug-In . SVG Version: 6.00 Build 0)  -->
<svg version="1.1" id="Layer_1" xmlns="http://www.w3.org/2000/svg" xmlns:xlink="http://www.w3.org/1999/xlink" x="0px" y="0px"
	 viewBox="0 0 48 48" enable-background="new 0 0 48 48" xml:space="preserve">
<circle id="circle" fill="#78C346" cx="36" cy="36" r="12"/>
<polygon id="check" fill="#FFFFFF" points="34.1,42.4 27.6,35.9 29.7,33.8 34.1,38.1 42.3,30 44.4,32.1 "/>
<path id="bed" d="M38,18.5H16.6v-7.1h14.2C34.8,11.3,38,14.5,38,18.5z M10.7,18.5c2,0,3.6-1.6,3.6-3.6s-1.6-3.6-3.6-3.6
	c-2,0-3.6,1.6-3.6,3.6S8.7,18.5,10.7,18.5z M36,22c0.7,0,1.3,0.1,2,0.2v-1.3h-4h-0.8H4.8V9c0-1.3-1.1-2.4-2.4-2.4S0,7.7,0,9v23h4.8
	v-6.3h21.9C29.1,23.4,32.4,22,36,22z"/>
</svg>
