<?xml version="1.0" encoding="utf-8"?>
<!-- Generator: Adobe Illustrator 21.1.0, SVG Export Plug-In . SVG Version: 6.00 Build 0)  -->
<svg version="1.1" id="Layer_1" xmlns="http://www.w3.org/2000/svg" xmlns:xlink="http://www.w3.org/1999/xlink" x="0px" y="0px"
	 viewBox="0 0 48 48" enable-background="new 0 0 48 48" xml:space="preserve">
<path id="door" d="M21,35.6c0.2-6,3.8-11.1,9-13.3V0H6v33h10v4.2L21,35.6z M19.5,20.1c-0.8,0-1.5-0.7-1.5-1.5c0-0.8,0.7-1.5,1.5-1.5
	c0.8,0,1.5,0.7,1.5,1.5C20.9,19.4,20.3,20.1,19.5,20.1z M9,30V3h11.9L16,4.6V30H9z"/>
<path id="circle" fill="#78C346" d="M36,24c-6.6,0-12,5.4-12,12c0,6.6,5.4,12,12,12s12-5.4,12-12C48,29.4,42.6,24,36,24z"/>
<polygon id="check" fill="#FFFFFF" points="34.1,42.4 27.6,35.9 29.7,33.8 34.1,38.1 42.3,30 44.4,32.1 "/>
</svg>
