<?xml version="1.0" encoding="utf-8"?>
<!-- Generator: Adobe Illustrator 22.1.0, SVG Export Plug-In . SVG Version: 6.00 Build 0)  -->
<svg version="1.1" id="Layer_1" xmlns="http://www.w3.org/2000/svg" xmlns:xlink="http://www.w3.org/1999/xlink" x="0px" y="0px"
	 viewBox="0 0 48 48" enable-background="new 0 0 48 48" xml:space="preserve">
<polygon id="triangle" fill="#FFC20B" points="46.7,47 25.3,47 36,28.5 "/>
<path id="triangleOutline" d="M47.9,47.1L36.5,27.4C36.4,27.1,36.2,27,36,27s-0.4,0.1-0.5,0.4L24.1,47.1c-0.3,0.5,0,0.9,0.5,0.9
	h22.8C47.9,48,48.2,47.6,47.9,47.1z M25.3,47L36,28.5L46.7,47H25.3z M35,44h2v2h-2V44z M37,33v9h-2v-9H37z"/>
<path id="door" d="M30,0H6v33h10v4.2l0,0v0.1l14-4.6V32l0,0V0z M19.5,20.1c-0.8,0-1.5-0.7-1.5-1.5s0.7-1.5,1.5-1.5s1.5,0.7,1.5,1.5
	C20.9,19.4,20.3,20.1,19.5,20.1z M16,30H9V3h11.9L16,4.6V30z"/>
</svg>
