<?xml version="1.0" encoding="utf-8"?>
<!-- Generator: Adobe Illustrator 22.1.0, SVG Export Plug-In . SVG Version: 6.00 Build 0)  -->
<svg version="1.1" id="Layer_1" xmlns="http://www.w3.org/2000/svg" xmlns:xlink="http://www.w3.org/1999/xlink" x="0px" y="0px"
	 viewBox="0 0 48 48" enable-background="new 0 0 48 48" xml:space="preserve">
<path id="triangle" fill="#E50000" d="M24.6,48c-0.5,0-0.8-0.4-0.5-0.9l11.4-19.8c0.3-0.5,0.7-0.5,1,0l11.4,19.8
	c0.3,0.5,0,0.9-0.5,0.9H24.6z"/>
<path id="exclamation" fill="#FFFFFF" d="M35,44h2v2h-2V44z M35,33v9h2v-9H35z"/>
<path id="door" d="M30,0H6v33h10v4.2l0,0v0.1l14-4.6V0z M19.5,20.1c-0.8,0-1.5-0.7-1.5-1.5s0.7-1.5,1.5-1.5s1.5,0.7,1.5,1.5
	C20.9,19.4,20.3,20.1,19.5,20.1z M16,30H9V3h11.9L16,4.6V30z"/>
</svg>
