<?xml version="1.0" encoding="utf-8"?>
<!-- Generator: Adobe Illustrator 21.1.0, SVG Export Plug-In . SVG Version: 6.00 Build 0)  -->
<svg version="1.1" id="Layer_1" xmlns="http://www.w3.org/2000/svg" xmlns:xlink="http://www.w3.org/1999/xlink" x="0px" y="0px"
	 viewBox="0 0 48 48" enable-background="new 0 0 48 48" xml:space="preserve">
<polygon id="triangle" fill="#FFC20B" points="43.7,47 22.3,47 33,28.5 "/>
<g id="exclamation">
	<path d="M44.9,47.1L33.5,27.4C33.4,27.1,33.2,27,33,27s-0.4,0.1-0.5,0.4L21.1,47.1c-0.3,0.5,0,0.9,0.5,0.9h22.8
		C44.9,48,45.2,47.6,44.9,47.1z M22.3,47L33,28.5L43.7,47H22.3z M32,44h2v2h-2V44z M34,33v9h-2v-9H34z"/>
</g>
<g id="door">
	<path d="M27,0H3v33h10v4.2l0,0v0.1l14-4.6V32l0,0V0z M16.5,20.1c-0.8,0-1.5-0.7-1.5-1.5c0-0.8,0.7-1.5,1.5-1.5
		c0.8,0,1.5,0.7,1.5,1.5C17.9,19.4,17.3,20.1,16.5,20.1z M13,30H6V3h11.9L13,4.6V30z"/>
</g>
</svg>
