<?xml version="1.0" encoding="utf-8"?>
<!-- Generator: Adobe Illustrator 21.1.0, SVG Export Plug-In . SVG Version: 6.00 Build 0)  -->
<svg version="1.1" id="Layer_1" xmlns="http://www.w3.org/2000/svg" xmlns:xlink="http://www.w3.org/1999/xlink" x="0px" y="0px"
	 viewBox="0 0 48 48" style="enable-background:new 0 0 48 48;" xml:space="preserve">
<path id="stopwatch" d="M25.2,25.9c0.5,0.5,0.6,1.4,0.2,1.8c-0.5,0.5-1.3,0.4-1.8-0.2l-5.3-5.3c-0.3-0.2-0.5-0.7-0.5-1.2v-8.9
	c0-0.8,0.5-1.4,1.2-1.4s1.2,0.6,1.2,1.4v8.5L25.2,25.9z M25.9,36.5v-2.7c-2.1,1.1-4.5,1.8-7,1.8c-8,0-14.6-6.5-14.6-14.6
	c0-8,6.5-14.6,14.6-14.6c1.5,0,3,0.2,4.3,0.7c5.9,1.8,10.2,7.4,10.2,13.9c0,1-0.1,1.9-0.3,2.9h2.4c0.2-0.9,0.2-1.9,0.2-2.9
	c0-0.3,0-0.7,0-1c0,0,0,0,0,0c-0.2-3.5-1.4-6.7-3.4-9.3l1.7-1.7c0.6-0.6,0.6-1.6,0-2.3l-1.1-1.1c-0.6-0.6-1.6-0.6-2.3,0L29,7.5
	c-1.5-1.1-3.2-2-5.1-2.6c-0.9-0.3-1.8-0.5-2.7-0.6V1.6c0-0.9-0.7-1.6-1.6-1.6h-1.5c-0.9,0-1.6,0.7-1.6,1.6v2.7
	C11.7,5,7.5,7.8,4.8,11.7c0,0,0,0,0,0C4.5,12.1,4.3,12.6,4,13c0,0,0,0.1,0,0.1c-0.2,0.4-0.5,0.9-0.6,1.3c0,0.1,0,0.1-0.1,0.2
	c-0.2,0.4-0.3,0.9-0.5,1.3c0,0.1-0.1,0.1-0.1,0.2c-0.1,0.4-0.2,0.9-0.3,1.3c0,0.1,0,0.2-0.1,0.3c-0.1,0.5-0.2,0.9-0.2,1.4
	c0,0.1,0,0.2,0,0.2C2,20,1.9,20.6,1.9,21.1c0,0,0,0,0,0s0,0,0,0c0,3.4,1,6.6,2.8,9.3c0,0.1,0.1,0.1,0.1,0.2c0,0,0.1,0.1,0.1,0.1
	c1.2,1.7,2.7,3.2,4.5,4.4c0,0,0,0,0,0c0.1,0.1,0.2,0.1,0.3,0.2c2.7,1.7,5.8,2.7,9.2,2.7c0,0,0,0,0,0c0,0,0,0,0,0
	c0.6,0,1.2,0,1.8-0.1c0.2,0,0.3,0,0.5-0.1c0.2,0,0.5-0.1,0.7-0.1l0,0C23.2,37.6,24.6,37.1,25.9,36.5z"/>
<path id="pause" d="M38.9,26h6v20h-6V26z M27.9,46h6V26h-6V46z"/>
</svg>
