<?xml version="1.0" encoding="utf-8"?>
<!-- Generator: Adobe Illustrator 21.1.0, SVG Export Plug-In . SVG Version: 6.00 Build 0)  -->
<svg version="1.1" id="Layer_1" xmlns="http://www.w3.org/2000/svg" xmlns:xlink="http://www.w3.org/1999/xlink" x="0px" y="0px"
	 viewBox="0 0 48 48" enable-background="new 0 0 48 48" xml:space="preserve">
<path d="M0,10h3v28H0V10z M45,10v28h3V10H45z M35,22.5h-9.5V13h6L24,5.5L16.5,13h6v9.5H13v-6L5.5,24l7.5,7.5v-6h9.5V35h-6l7.5,7.5
	l7.5-7.5h-6v-9.5H35v6l7.5-7.5L35,16.5V22.5z M38,0H10v3h28V0z M10,48h28v-3H10V48z"/>
</svg>
