<?xml version="1.0" encoding="utf-8"?>
<!-- Generator: Adobe Illustrator 21.1.0, SVG Export Plug-In . SVG Version: 6.00 Build 0)  -->
<svg version="1.1" id="Layer_1" xmlns="http://www.w3.org/2000/svg" xmlns:xlink="http://www.w3.org/1999/xlink" x="0px" y="0px"
	 viewBox="0 0 48 48" enable-background="new 0 0 48 48" xml:space="preserve">
<polygon fill="#FFC20B" points="46.7,47 25.3,47 36,28.5 "/>
<path d="M47.9,47.1L36.5,27.4C36.4,27.1,36.2,27,36,27s-0.4,0.1-0.5,0.4L24.1,47.1c-0.3,0.5,0,0.9,0.5,0.9h22.8
	C47.9,48,48.2,47.6,47.9,47.1z M25.3,47L36,28.5L46.7,47H25.3z M35,44h2v2h-2V44z M37,33v9h-2v-9H37z"/>
<path id="pill" d="M34.5,2.4c-1.7-1.6-3.8-2.4-6-2.4c-2.2,0-4.4,0.8-6,2.5l-20,20c-3.3,3.3-3.3,8.7,0.1,12c1.7,1.6,3.8,2.4,6,2.4
	c2.2,0,4.4-0.8,6-2.5l20-20C37.8,11.1,37.8,5.7,34.5,2.4z M32.9,12.8l-10,10l-8.8-8.7l10-10c1.2-1.2,2.7-1.8,4.4-1.8
	c1.6,0,3.2,0.6,4.3,1.8c1.2,1.2,1.8,2.7,1.8,4.3C34.7,10.1,34.1,11.6,32.9,12.8z"/>
</svg>
