<?xml version="1.0" encoding="utf-8"?>
<!-- Generator: Adobe Illustrator 21.1.0, SVG Export Plug-In . SVG Version: 6.00 Build 0)  -->
<svg version="1.1" id="Layer_1" xmlns="http://www.w3.org/2000/svg" xmlns:xlink="http://www.w3.org/1999/xlink" x="0px" y="0px"
	 viewBox="0 0 48 48" enable-background="new 0 0 48 48" xml:space="preserve">
<path id="personOutline" d="M33,14c3.1,0,5.7,2.6,5.7,5.7s-2.6,5.7-5.7,5.7s-5.7-2.6-5.7-5.7S29.8,14,33,14 M33,11
	c-4.8,0-8.7,3.9-8.7,8.7s3.9,8.7,8.7,8.7c4.8,0,8.7-3.9,8.7-8.7S37.8,11,33,11L33,11z M35.1,33.7c5.5,0,9.9,4.4,9.9,9.9V45H20.9
	v-1.4c0-5.5,4.4-9.9,9.9-9.9H35.1 M35.1,30.7h-4.2c-7.1,0-12.9,5.8-12.9,12.9V48H48v-4.4C48,36.5,42.2,30.7,35.1,30.7L35.1,30.7z"/>
<path id="personSolid" d="M23.7,8.7c0,4.8-3.9,8.7-8.7,8.7s-8.7-3.9-8.7-8.7S10.2,0,15,0S23.7,3.9,23.7,8.7z M25.5,28.7
	c-2.4-2-4-5-4.1-8.3c-1.3-0.4-2.7-0.7-4.2-0.7h-4.2C5.8,19.7,0,25.5,0,32.6V37h16.4C18.2,33.1,21.4,30.1,25.5,28.7z"/>
</svg>
