<?xml version="1.0" encoding="utf-8"?>
<!-- Generator: Adobe Illustrator 22.1.0, SVG Export Plug-In . SVG Version: 6.00 Build 0)  -->
<svg version="1.1" id="Layer_1" xmlns="http://www.w3.org/2000/svg" xmlns:xlink="http://www.w3.org/1999/xlink" x="0px" y="0px"
	 viewBox="0 0 48 48" enable-background="new 0 0 48 48" xml:space="preserve">
<path d="M46,2H2C0.9,2,0,2.9,0,4v32c0,1.1,0.9,2,2,2h19v5h-5v3h16v-3h-5v-5h19c1.1,0,2-0.9,2-2V4C48,2.9,47.1,2,46,2z M24,34.5
	c-1.2,0-2.2-1-2.2-2.2c0-1.2,1-2.2,2.2-2.2s2.2,1,2.2,2.2C26.2,33.5,25.2,34.5,24,34.5z M45,27H3V5H45V27z"/>
</svg>
