<?xml version="1.0" encoding="utf-8"?>
<!-- Generator: Adobe Illustrator 23.0.4, SVG Export Plug-In . SVG Version: 6.00 Build 0)  -->
<svg version="1.1" id="Layer_4" xmlns="http://www.w3.org/2000/svg" xmlns:xlink="http://www.w3.org/1999/xlink" x="0px" y="0px"
	 viewBox="0 0 48 48" style="enable-background:new 0 0 48 48;" xml:space="preserve">
<path d="M38.1,36l4.8-4.9l-1-1.1l-0.6-0.6l0,0L40.8,29L36,33.8L31.2,29l-1.1,1l-0.5,0.5l0,0l-0.5,0.5l4.9,4.9l-4.9,4.9l0.5,0.5l0,0
	l0.5,0.5l1.1,1l4.8-4.8l4.8,4.8l0.5-0.5l0,0l0.6-0.6l1-1L38.1,36z M24,38H3V5h4V1.8C7,0.8,7.8,0,8.8,0h1.5c1,0,1.8,0.8,1.8,1.8V5h15
	V1.8c0-1,0.8-1.8,1.8-1.8h1.5c1,0,1.8,0.8,1.8,1.8V5h4v19h-3v-7H6v18h18V38z"/>
</svg>
