<?xml version="1.0" encoding="utf-8"?>
<!-- Generator: Adobe Illustrator 23.0.3, SVG Export Plug-In . SVG Version: 6.00 Build 0)  -->
<svg version="1.1" id="Layer_8_copy" xmlns="http://www.w3.org/2000/svg" xmlns:xlink="http://www.w3.org/1999/xlink" x="0px"
	 y="0px" viewBox="0 0 48 48" style="enable-background:new 0 0 48 48;" xml:space="preserve">
<style type="text/css">
	.st0{fill:#E50001;}
</style>
<path d="M32.58,21.41c1.22-5.03,1.89-10.18,1.99-15.36C24.89,6.94,17.75,0,17.75,0S10.61,6.94,0.93,6.05c0,0,0.12,15.7,5.21,22.89
	C9.05,33.06,17.75,38,17.75,38s1.4-0.8,3.25-2C21.01,29.04,25.81,23,32.58,21.41z"/>
<path id="cancel" class="st0" d="M36,24c-6.63,0-12,5.37-12,12s5.37,12,12,12s12-5.37,12-12S42.63,24,36,24z M27,36
	c-0.01-4.96,4.01-8.99,8.97-9c1.88,0,3.71,0.58,5.23,1.67L28.67,41.21C27.58,39.69,27,37.87,27,36z M36,45
	c-1.87,0-3.69-0.58-5.21-1.67l12.53-12.53c2.88,4.04,1.95,9.65-2.09,12.53C39.71,44.42,37.88,45,36,45z"/>
</svg>
