<?xml version="1.0" encoding="utf-8"?>
<!-- Generator: Adobe Illustrator 22.1.0, SVG Export Plug-In . SVG Version: 6.00 Build 0)  -->
<svg version="1.1" id="Layer_1" xmlns="http://www.w3.org/2000/svg" xmlns:xlink="http://www.w3.org/1999/xlink" x="0px" y="0px"
	 viewBox="0 0 48 48" enable-background="new 0 0 48 48" xml:space="preserve">
<path id="mortar" d="M0.471,3.867c-0.628-0.629-0.628-1.657,0-2.286l1.111-1.11c0.629-0.628,1.657-0.628,2.286,0L15.87,12.477H9.079
	L0.471,3.867z M29,22v6.5h1.089c0.104,1.81,0.715,3.554,1.785,5.164c-1.74,0.981-3.744,1.546-5.884,1.546h-6.398
	c-6.633,0-12.01-5.377-12.01-12.01v-8.002H38V22H29z M27.594,22.966h-3.202v-3.202H21.19v3.202h-3.202v3.202h3.202v3.202h3.202
	v-3.202h3.202V22.966z"/>
<path id="hourglass" d="M48,24H31v2.5h1.073l0,1.438c0,4.197,3.279,7.03,5.599,8.515c-1.874,1.07-5.599,3.691-5.599,7.608l0,1.439
	H31V48h17v-2.5h-1.073l0-1.439c0-3.918-3.728-6.54-5.596-7.606c2.287-1.461,5.596-4.301,5.596-8.517l0-1.438H48V24z M45.178,44.061
	l0,0.375C43.487,43.524,41.556,43,39.5,43s-3.987,0.524-5.678,1.436l0-0.375c0-3.522,4.395-5.942,5.283-6.396l0.394-0.206
	l0.403,0.21C40.783,38.118,45.178,40.538,45.178,44.061z M44.237,31.225c-1.456,0.631-3.049,1.004-4.737,1.004
	c-1.685,0-3.277-0.368-4.731-0.996c-0.569-0.963-0.947-2.061-0.947-3.294l0-1.438h11.354l0,1.438
	C45.178,29.169,44.802,30.265,44.237,31.225z"/>
</svg>
