<?xml version="1.0" encoding="utf-8"?>
<!-- Generator: Adobe Illustrator 23.0.6, SVG Export Plug-In . SVG Version: 6.00 Build 0)  -->
<svg version="1.1" id="Layer_1" xmlns="http://www.w3.org/2000/svg" xmlns:xlink="http://www.w3.org/1999/xlink" x="0px" y="0px"
	 viewBox="0 0 48 48" style="enable-background:new 0 0 48 48;" xml:space="preserve">
<path d="M21,43h3v5H0V0h24v5H5v38H21z M37.6,14.1c2.5,0,4.6-2.1,4.6-4.6s-2.1-4.6-4.6-4.6C35,4.9,33,6.9,33,9.5S35,14.1,37.6,14.1
	L37.6,14.1z M41.7,22.5L41.7,22.5l-3.8-0.1l-2.7-3.5l0,0c-0.7-1.5-1.7-2.8-2.9-4c-1.1-1.2-2.5-2.2-4-2.9H16.2L12,16.2
	c-0.9,0.9-0.9,2.3,0,3.1v0c0.9,0.9,2.3,0.9,3.1,0l0,0l3.1-3.1H24L12.4,27.9l-2-2l0,0c-0.9-0.9-2.3-0.9-3.1,0v0
	c-0.9,0.9-0.9,2.3,0,3.1l4.9,5l1.4-1.4l6-6l9.1,9.1v4.4c0,1.2,1,2.2,2.2,2.2s2.2-1,2.2-2.2v-5.9l-6.6-6.6l6.1-6.1l4.2,5.1h4.9
	c1.1,0,2.1-0.9,2.1-2.1c0,0,0,0,0,0l0,0C43.8,23.4,42.9,22.5,41.7,22.5C41.7,22.5,41.7,22.5,41.7,22.5z"/>
</svg>
