<svg id="Layer_3" data-name="Layer 3" xmlns="http://www.w3.org/2000/svg" viewBox="0 0 48 48"><title>Elopement_v2</title><path d="M21,43H5V5H26V0H0V48H26V43ZM44,25H39V21a2,2,0,0,0-.91-1.674l-.533-.467a7.994,7.994,0,0,1-6.289-5.833A2.009,2.009,0,0,0,31,13H18.672l-4.086,4.086a2,2,0,1,0,2.779,2.877c.017-.016.033-.032.049-.049L20.328,17h6.253L15.319,27.819l-2.37-2.529A2.5,2.5,0,0,0,9.3,28.71l5.833,6.221,6.893-6.622L29,35.015V40.5a2.5,2.5,0,0,0,5,0V32.886l-4.6-4.424,5.6-5.7V29h9a2,2,0,0,0,0-4ZM39,6a5,5,0,1,1-5,5A5,5,0,0,1,39,6Z"/></svg>