<svg id="Layer_4" data-name="Layer 4" xmlns="http://www.w3.org/2000/svg" viewBox="0 0 48 48"><circle cx="40.99" cy="23.159" r="4.184"/><path d="M22.74,35H6V17H33v4.415a8.547,8.547,0,0,1,.928.451A7.181,7.181,0,0,1,36,18.005V5H32V1.763A1.768,1.768,0,0,0,30.237,0H28.763A1.768,1.768,0,0,0,27,1.763V5H12V1.763A1.768,1.768,0,0,0,10.237,0H8.763A1.768,1.768,0,0,0,7,1.763V5H3V38H19.291A11.473,11.473,0,0,1,22.74,35Z"/><circle cx="29.695" cy="29.391" r="5.641"/><path d="M39.449,47.75V44.9a8.38,8.38,0,0,0-8.38-8.379H28.321A8.379,8.379,0,0,0,19.942,44.9V47.75Z"/><path d="M41.986,29H40.014a6.053,6.053,0,0,0-1.686.242c0,.05.008.1.008.149a8.6,8.6,0,0,1-1.949,5.458A11.449,11.449,0,0,1,39.238,37H48V34.97A5.992,5.992,0,0,0,41.986,29Z"/></svg>