<svg id="Sizes" xmlns="http://www.w3.org/2000/svg" viewBox="0 0 48 48"><path d="M23.733,8.7a8.7,8.7,0,1,1-8.7-8.7A8.7,8.7,0,0,1,23.733,8.7ZM19.79,33.408a13.467,13.467,0,0,1,5.463-10.816,12.909,12.909,0,0,0-3.945-2.2v-.011c-.052-.018-.106-.03-.158-.047-.164-.054-.33-.1-.5-.148-.213-.06-.427-.116-.645-.166-.161-.036-.322-.072-.486-.1-.265-.05-.534-.089-.8-.123-.119-.014-.236-.034-.355-.045-.4-.038-.8-.063-1.206-.063H12.889c-.408,0-.809.025-1.206.063-.12.011-.237.031-.355.045-.271.034-.54.073-.806.123-.163.031-.325.067-.486.1-.217.05-.432.106-.645.166-.166.047-.333.094-.5.148-.052.017-.106.029-.158.047V20.4A12.914,12.914,0,0,0,0,32.609V37H20.291A13.4,13.4,0,0,1,19.79,33.408ZM47.5,46.928l-.694.693a1.014,1.014,0,0,1-1.428,0l-6.336-6.334a.983.983,0,0,1-.148-.223,9.517,9.517,0,1,1,2.049-2.043,1,1,0,0,1,.221.146L47.5,45.5A1.013,1.013,0,0,1,47.5,46.928ZM33.29,41.151a7.743,7.743,0,1,0-7.75-7.743A7.755,7.755,0,0,0,33.29,41.151Z"/></svg>