<?xml version="1.0" encoding="utf-8"?>
<!-- Generator: Adobe Illustrator 24.3.0, SVG Export Plug-In . SVG Version: 6.00 Build 0)  -->
<svg version="1.1" id="Layer_2_1_" xmlns="http://www.w3.org/2000/svg" xmlns:xlink="http://www.w3.org/1999/xlink" x="0px" y="0px"
	 viewBox="0 0 48 48" style="enable-background:new 0 0 48 48;" xml:space="preserve">
<path d="M19.5,3.5v41C8.2,42,1,30.8,3.5,19.5C5.2,11.5,11.5,5.2,19.5,3.5 M22.5,0.1C9.3,0.9-0.8,12.3,0.1,25.5
	c0.8,12,10.4,21.6,22.4,22.4C22.5,48,22.5,0.1,22.5,0.1z M28,3.4C37.6,5.5,45,14.2,45,24s-7.4,18.5-17,20.6V3.4 M25,0v48
	c12.6-0.8,23-11.2,23-24S37.6,0.8,25,0z"/>
</svg>
