<svg id="Layer_3" data-name="Layer 3" xmlns="http://www.w3.org/2000/svg" viewBox="0 0 48 48"><path d="M47.927,7a3.726,3.726,0,0,0-3.653-3H3.726A3.726,3.726,0,0,0,.073,7H0V40.274A3.726,3.726,0,0,0,3.726,44H44.274A3.726,3.726,0,0,0,48,40.274V7ZM45,40.274a.727.727,0,0,1-.726.726H3.726A.727.727,0,0,1,3,40.274V29H9.356a1,1,0,0,0,.9-.569l.871-1.826,2.392,6.73a1,1,0,0,0,1.92-.123l2.1-9.671,2.451,12.341a1,1,0,0,0,.971.806h.01a1,1,0,0,0,.976-.788l2.293-10.512,1.119,2.965A1,1,0,0,0,26.3,29h5.3a1,1,0,0,0,.966-.744l.618-2.33L35.3,33.934a1,1,0,0,0,.913.744.989.989,0,0,0,.988-.643L39.117,29H45ZM45,27H38.429a1,1,0,0,0-.935.644l-1.058,2.774L34.152,21.76a1,1,0,0,0-.965-.745h0a1,1,0,0,0-.967.743L30.829,27H26.988L24.92,21.522a1.012,1.012,0,0,0-1.009-.645,1,1,0,0,0-.9.785l-1.989,9.122L18.564,18.43a1,1,0,0,0-.971-.8h-.009a1,1,0,0,0-.978.788L14.231,29.358l-2.023-5.693a1,1,0,0,0-1.845-.1L8.726,27H3V15H45Z"/></svg>