<svg xmlns="http://www.w3.org/2000/svg" viewBox="0 0 48 48"><g id="_48" data-name="48"><path d="M47.69,17.12l-3.9,3.9a27.673,27.673,0,0,0-39.58,0l-3.9-3.9a33.224,33.224,0,0,1,47.38,0Z"/><path d="M41.29,23.52l-3.9,3.9a18.646,18.646,0,0,0-26.78,0l-3.9-3.9a24.2,24.2,0,0,1,34.58,0Z"/><path d="M34.87,29.94l-3.89,3.89a9.6,9.6,0,0,0-13.96,0l-3.89-3.89a15.1,15.1,0,0,1,21.74,0Z"/><path d="M24,34.39a5.971,5.971,0,0,0-4.45,1.97L24,40.81l4.45-4.45A5.971,5.971,0,0,0,24,34.39Zm-.02,6.09-.02-.05.02-.04h.04l.02.06Z"/><path d="M24.04,40.45l-.06.03-.02-.05.02-.04h.04Z"/></g></svg>