<?xml version="1.0" encoding="utf-8"?>
<!-- Generator: Adobe Illustrator 23.0.4, SVG Export Plug-In . SVG Version: 6.00 Build 0)  -->
<svg version="1.1" id="Layer_1" xmlns="http://www.w3.org/2000/svg" xmlns:xlink="http://www.w3.org/1999/xlink" x="0px" y="0px"
	 viewBox="0 0 48 48" style="enable-background:new 0 0 48 48;" xml:space="preserve">
<style type="text/css">
	.st0{fill:#FFFFFF;}
</style>
<path class="st0" d="M27,11v10h10v6H27v11h-6V27H11v-6h10V11H27z M47.7,24.8L24.8,47.7c-0.4,0.4-1.1,0.4-1.6,0L0.3,24.8
	c-0.4-0.4-0.4-1.1,0-1.6L23.2,0.3C23.4,0.1,23.7,0,24,0c0.3,0,0.6,0.1,0.8,0.3l22.9,22.9C48.1,23.6,48.1,24.4,47.7,24.8z M44.2,24
	L24,3.8L3.8,24L24,44.2L44.2,24z"/>
</svg>
