<svg xmlns="http://www.w3.org/2000/svg" xmlns:xlink="http://www.w3.org/1999/xlink" viewBox="0 0 48 48"><defs><clipPath id="clip-path"><polygon points="24 -29.19 -10 -63.19 51.702 -63.19 58 -63.19 24 -29.19" fill="none"/></clipPath></defs><g id="_48" data-name="48"><path d="M47.69,17.12,43.8,21.01a27.712,27.712,0,0,0-24.37-7.94l-4.6-4.6A33.463,33.463,0,0,1,24,7.19,33.1,33.1,0,0,1,47.69,17.12Z"/><path d="M10.08,16.44A28.116,28.116,0,0,0,4.2,21.01L.31,17.12a32.916,32.916,0,0,1,5.77-4.68Z"/><path d="M16.83,23.19a18.662,18.662,0,0,0-6.22,4.23l-3.9-3.9a24.1,24.1,0,0,1,5.99-4.46Z"/><path d="M41.29,23.52l-3.9,3.9a18.742,18.742,0,0,0-8.68-5.07l-6.06-6.06c.45-.03.9-.04,1.35-.04A24.127,24.127,0,0,1,41.29,23.52Z"/><path d="M24.47,30.83c-.15-.01-.31-.01-.47-.01a9.584,9.584,0,0,0-6.98,3.01l-3.89-3.89a15.181,15.181,0,0,1,6.48-3.97Z"/><path d="M24,34.39a5.971,5.971,0,0,0-4.45,1.97L24,40.81l4.45-4.45A5.971,5.971,0,0,0,24,34.39Zm-.02,6.09-.02-.05.02-.04h.04l.02.06Z"/><path d="M24.02,40.39l.02.06-.06.03-.02-.05.02-.04h.04Z"/><rect x="20.026" y="-1.975" width="3" height="47.001" transform="translate(-8.916 21.525) rotate(-45)"/><g clip-path="url(#clip-path)"><path d="M24-57.312A27.776,27.776,0,0,1,51.744-29.568,27.776,27.776,0,0,1,24-1.823,27.776,27.776,0,0,1-3.744-29.568,27.776,27.776,0,0,1,24-57.312m0-5.5A33.244,33.244,0,0,0-9.244-29.568,33.244,33.244,0,0,0,24,3.677,33.244,33.244,0,0,0,57.244-29.568,33.244,33.244,0,0,0,24-62.812Z"/></g></g></svg>