<svg xmlns="http://www.w3.org/2000/svg" viewBox="0 0 48 48"><g id="_48" data-name="48"><rect x="35.616" y="4.135" width="12.753" height="3.75" transform="translate(8.054 31.459) rotate(-45.011)"/><rect x="29.625" width="3.75" height="6"/><rect x="42" y="14.625" width="6" height="3.75"/><rect x="-0.369" y="40.115" width="12.753" height="3.751" transform="translate(-27.932 16.547) rotate(-45)"/><rect x="14.625" y="42" width="3.75" height="6"/><rect y="29.625" width="6" height="3.75"/><path d="M8.578,19.2A7.582,7.582,0,0,1,19.3,8.477L26.719,15.9a7.606,7.606,0,0,1,.959,9.552l5,3.317a13.623,13.623,0,0,0-1.717-17.111L23.543,4.235A13.582,13.582,0,0,0,4.336,23.443Z"/><path d="M42.362,23.47,38.12,27.712l1.351,1.351a7.428,7.428,0,0,1-10.5,10.505l-7.31-7.31a7.453,7.453,0,0,1-.95-9.342l-5.008-3.3A13.473,13.473,0,0,0,17.414,36.5l7.31,7.312A13.428,13.428,0,0,0,43.713,24.82Z"/></g></svg>