<?xml version="1.0" encoding="utf-8"?>
<!-- Generator: Adobe Illustrator 26.0.3, SVG Export Plug-In . SVG Version: 6.00 Build 0)  -->
<svg version="1.1" xmlns="http://www.w3.org/2000/svg" xmlns:xlink="http://www.w3.org/1999/xlink" x="0px" y="0px"
	 viewBox="0 0 48 48" enable-background="new 0 0 48 48" xml:space="preserve">
<g id="Base" display="none">
	<g id="Grid" display="inline">
		<g id="_x34_8_00000155864781458629661280000006948730475075209382_">
			<g id="_x33_2_6_">
				<g>
					<g>
						<path fill="#00D3CD" d="M18.75,11.658c3.911,0,7.082,3.168,7.082,7.076s-3.171,7.076-7.082,7.076
							c-3.911,0-7.082-3.168-7.082-7.076S14.839,11.658,18.75,11.658 M18.75,11.583c-3.946,0-7.157,3.208-7.157,7.151
							c0,3.943,3.211,7.151,7.157,7.151s7.157-3.208,7.157-7.151C25.907,14.791,22.696,11.583,18.75,11.583L18.75,11.583z"/>
					</g>
					<g>
						<path fill="#00D3CD" d="M18.75,14.326c2.437,0,4.412,1.974,4.412,4.408c0,2.434-1.975,4.408-4.412,4.408
							c-2.436,0-4.412-1.974-4.412-4.408C14.338,16.299,16.313,14.326,18.75,14.326 M18.75,14.251c-2.474,0-4.487,2.011-4.487,4.483
							c0,2.472,2.013,4.483,4.487,4.483c2.474,0,4.487-2.011,4.487-4.483C23.237,16.262,21.224,14.251,18.75,14.251L18.75,14.251z"
							/>
					</g>
					<g>
						<path fill="#00D3CD" d="M18.75,16.04c1.489,0,2.696,1.206,2.696,2.694c0,1.488-1.207,2.694-2.696,2.694
							c-1.489,0-2.696-1.206-2.696-2.694C16.054,17.246,17.261,16.04,18.75,16.04 M18.75,15.965c-1.528,0-2.771,1.242-2.771,2.769
							s1.243,2.769,2.771,2.769c1.528,0,2.771-1.242,2.771-2.769S20.278,15.965,18.75,15.965L18.75,15.965z"/>
					</g>
					<g>
						<path fill="#00D3CD" d="M18.75,17.026c0.944,0,1.709,0.765,1.709,1.708s-0.765,1.708-1.709,1.708
							c-0.944,0-1.709-0.765-1.709-1.708S17.806,17.026,18.75,17.026 M18.75,16.951c-0.984,0-1.784,0.8-1.784,1.783
							s0.8,1.783,1.784,1.783c0.984,0,1.784-0.8,1.784-1.783S19.734,16.951,18.75,16.951L18.75,16.951z"/>
					</g>
					<g>
						<path fill="#00D3CD" d="M18.75,17.741c0.549,0,0.993,0.444,0.993,0.992c0,0.548-0.445,0.993-0.993,0.993
							c-0.549,0-0.993-0.444-0.993-0.993C17.757,18.185,18.201,17.741,18.75,17.741 M18.75,17.666c-0.589,0-1.068,0.479-1.068,1.067
							c0,0.589,0.479,1.068,1.068,1.068c0.589,0,1.068-0.479,1.068-1.068C19.818,18.145,19.339,17.666,18.75,17.666L18.75,17.666z"
							/>
					</g>
					<g>
						<path fill="#00D3CD" d="M18.75,18.017c0.396,0,0.717,0.321,0.717,0.717c0,0.396-0.321,0.717-0.717,0.717
							c-0.396,0-0.717-0.321-0.717-0.717C18.033,18.338,18.354,18.017,18.75,18.017 M18.75,17.942c-0.437,0-0.792,0.355-0.792,0.792
							c0,0.436,0.355,0.792,0.792,0.792s0.792-0.355,0.792-0.792C19.542,18.297,19.187,17.942,18.75,17.942L18.75,17.942z"/>
					</g>
					<g>
						<path fill="#00D3CD" d="M18.75,7.214c6.368,0,11.529,5.157,11.529,11.519c0,6.362-5.162,11.519-11.529,11.519
							c-6.367,0-11.529-5.157-11.529-11.519C7.221,12.372,12.382,7.214,18.75,7.214 M18.75,7.139
							c-6.399,0-11.604,5.201-11.604,11.594s5.206,11.594,11.604,11.594c6.399,0,11.604-5.201,11.604-11.594
							S25.149,7.139,18.75,7.139L18.75,7.139z"/>
					</g>
					<g>
						<path fill="#00D3CD" d="M18.75,0.075c10.314,0,18.675,8.354,18.675,18.659c0,10.305-8.361,18.659-18.675,18.659
							c-10.314,0-18.675-8.354-18.675-18.659C0.075,8.429,8.436,0.075,18.75,0.075 M18.75,0C8.411,0,0,8.404,0,18.734
							c0,10.33,8.411,18.734,18.75,18.734c10.339,0,18.75-8.404,18.75-18.734C37.5,8.404,29.089,0,18.75,0L18.75,0z"/>
					</g>
					<rect x="5.54" y="5.536" fill="none" stroke="#FA00C4" stroke-width="0.075" width="26.419" height="26.396"/>
					<line fill="none" stroke="#00D3CD" stroke-width="0.075" x1="5.54" y1="5.536" x2="31.959" y2="31.932"/>
					<line fill="none" stroke="#00D3CD" stroke-width="0.075" x1="31.959" y1="5.536" x2="5.54" y2="31.932"/>
					<rect x="0.094" y="0.094" fill="none" stroke="#00D3CD" stroke-width="0.075" width="18.656" height="18.639"/>
					<rect x="18.75" y="0.094" fill="none" stroke="#00D3CD" stroke-width="0.075" width="18.656" height="18.639"/>
					<rect x="0.094" y="18.734" fill="none" stroke="#00D3CD" stroke-width="0.075" width="18.656" height="18.639"/>
					<rect x="18.75" y="18.734" fill="none" stroke="#00D3CD" stroke-width="0.075" width="18.656" height="18.639"/>
					<rect x="10.597" y="10.588" fill="none" stroke="#00D3CD" stroke-width="0.075" width="16.306" height="16.292"/>
				</g>
			</g>
			<g id="_x33_2_70_">
				<g>
					<g>
						<path fill="#00D3CD" d="M36,31.478c2.498,0,4.522,2.025,4.522,4.522c0,2.498-2.025,4.522-4.522,4.522
							c-2.498,0-4.522-2.025-4.522-4.522C31.478,33.502,33.502,31.478,36,31.478 M36,31.403c-2.535,0-4.597,2.062-4.597,4.597
							c0,2.535,2.062,4.597,4.597,4.597s4.597-2.062,4.597-4.597C40.597,33.465,38.535,31.403,36,31.403L36,31.403z"/>
					</g>
					<g>
						<path fill="#00D3CD" d="M36,33.183c1.556,0,2.817,1.261,2.817,2.817c0,1.556-1.261,2.817-2.817,2.817
							c-1.556,0-2.817-1.261-2.817-2.817C33.183,34.444,34.444,33.183,36,33.183 M36,33.108c-1.595,0-2.892,1.297-2.892,2.892
							c0,1.595,1.297,2.892,2.892,2.892s2.892-1.297,2.892-2.892C38.892,34.405,37.595,33.108,36,33.108L36,33.108z"/>
					</g>
					<g>
						<path fill="#00D3CD" d="M36,34.278c0.951,0,1.722,0.771,1.722,1.722c0,0.951-0.771,1.722-1.722,1.722
							c-0.951,0-1.722-0.771-1.722-1.722C34.278,35.049,35.049,34.278,36,34.278 M36,34.203c-0.991,0-1.797,0.806-1.797,1.797
							s0.806,1.797,1.797,1.797c0.991,0,1.797-0.806,1.797-1.797S36.99,34.203,36,34.203L36,34.203z"/>
					</g>
					<g>
						<path fill="#00D3CD" d="M36,34.909c0.603,0,1.091,0.489,1.091,1.091c0,0.603-0.489,1.091-1.091,1.091
							c-0.603,0-1.091-0.489-1.091-1.091C34.908,35.397,35.397,34.909,36,34.909 M36,34.834c-0.643,0-1.166,0.523-1.166,1.166
							s0.523,1.166,1.166,1.166s1.166-0.523,1.166-1.166S36.643,34.834,36,34.834L36,34.834z"/>
					</g>
					<g>
						<path fill="#00D3CD" d="M36,35.366c0.35,0,0.634,0.284,0.634,0.634c0,0.35-0.284,0.634-0.634,0.634
							c-0.35,0-0.634-0.284-0.634-0.634C35.366,35.65,35.65,35.366,36,35.366 M36,35.291c-0.391,0-0.709,0.318-0.709,0.709
							c0,0.391,0.318,0.709,0.709,0.709s0.709-0.318,0.709-0.709C36.709,35.609,36.391,35.291,36,35.291L36,35.291z"/>
					</g>
					<g>
						<path fill="#00D3CD" d="M36,35.542c0.253,0,0.458,0.205,0.458,0.458c0,0.253-0.205,0.458-0.458,0.458
							c-0.253,0-0.458-0.205-0.458-0.458C35.542,35.747,35.747,35.542,36,35.542 M36,35.467c-0.294,0-0.533,0.239-0.533,0.533
							c0,0.294,0.239,0.533,0.533,0.533s0.533-0.239,0.533-0.533C36.533,35.706,36.294,35.467,36,35.467L36,35.467z"/>
					</g>
					<g>
						<path fill="#00D3CD" d="M36,28.638c4.066,0,7.362,3.296,7.362,7.362c0,4.066-3.296,7.362-7.362,7.362S28.638,40.066,28.638,36
							C28.638,31.934,31.934,28.638,36,28.638 M36,28.563c-4.101,0-7.437,3.336-7.437,7.437c0,4.101,3.336,7.437,7.437,7.437
							s7.437-3.336,7.437-7.437C43.437,31.899,40.101,28.563,36,28.563L36,28.563z"/>
					</g>
					<g>
						<path fill="#00D3CD" d="M36,24.075c6.586,0,11.925,5.339,11.925,11.925c0,6.586-5.339,11.925-11.925,11.925
							S24.075,42.586,24.075,36C24.075,29.414,29.414,24.075,36,24.075 M36,24c-6.617,0-12,5.383-12,12c0,6.617,5.383,12,12,12
							s12-5.383,12-12C48,29.383,42.617,24,36,24L36,24z"/>
					</g>
					<rect x="27.565" y="27.565" fill="none" stroke="#FA00C4" stroke-width="0.075" width="16.87" height="16.87"/>
					<line fill="none" stroke="#00D3CD" stroke-width="0.075" x1="27.565" y1="27.565" x2="44.435" y2="44.435"/>
					<line fill="none" stroke="#00D3CD" stroke-width="0.075" x1="44.435" y1="27.565" x2="27.565" y2="44.435"/>
					<rect x="24.087" y="24.087" fill="none" stroke="#00D3CD" stroke-width="0.075" width="11.913" height="11.913"/>
					<rect x="36" y="24.087" fill="none" stroke="#00D3CD" stroke-width="0.075" width="11.913" height="11.913"/>
					<rect x="24.087" y="36" fill="none" stroke="#00D3CD" stroke-width="0.075" width="11.913" height="11.913"/>
					<rect x="36" y="36" fill="none" stroke="#00D3CD" stroke-width="0.075" width="11.913" height="11.913"/>
					<rect x="30.794" y="30.794" fill="none" stroke="#00D3CD" stroke-width="0.075" width="10.412" height="10.412"/>
				</g>
			</g>
		</g>
	</g>
	<g id="space_00000093878232578059561690000004594654107891706522_" display="inline">
	</g>
</g>
<g id="Icon_Sizes" display="none">
</g>
<g id="Layer_2">
	<g>
		<path d="M28.122,29.025c0.585,0,1.161,0.074,1.717,0.215c-1.588-5.411-6.577-9.369-12.503-9.38c-0.016,0-0.031,0-0.047,0h-4.283
			C5.802,19.881-0.021,25.739,0,32.943v0v5.052h21.259c-0.087-0.44-0.135-1.507-0.135-1.973
			C21.124,32.164,24.264,29.025,28.122,29.025z M15.187,17.601c4.86,0,8.8-3.94,8.8-8.8S20.047,0,15.187,0
			c-4.851,0.021-8.779,3.949-8.8,8.801C6.386,13.661,10.326,17.601,15.187,17.601z M44.477,38.956
			c-1.443-0.173-2.787,0.453-3.621,1.52l-8.918-3.861C31.969,36.413,32,36.211,32,36c0-0.142-0.027-0.276-0.042-0.414l8.779-3.284
			c0.63,0.897,1.611,1.541,2.785,1.683c2.193,0.264,4.185-1.3,4.449-3.494c0.264-2.193-1.3-4.185-3.494-4.449
			c-2.193-0.264-4.185,1.3-4.449,3.494c-0.037,0.305-0.03,0.603,0,0.896l-8.757,3.277C30.548,32.678,29.355,32,28,32
			c-2.209,0-4,1.791-4,4c0,2.209,1.791,4,4,4c1.281,0,2.409-0.613,3.141-1.55l8.919,3.862c-0.007,0.047-0.025,0.091-0.031,0.139
			c-0.264,2.193,1.3,4.185,3.494,4.449c2.193,0.264,4.185-1.3,4.449-3.494C48.235,41.212,46.671,39.22,44.477,38.956z"/>
	</g>
</g>
</svg>
