<?xml version="1.0" encoding="UTF-8"?>
<svg xmlns="http://www.w3.org/2000/svg" version="1.1" viewBox="0 0 48 48">
  <!-- Generator: Adobe Illustrator 28.6.0, SVG Export Plug-In . SVG Version: 1.2.0 Build 709)  -->
  <g>
    <g id="Layer_1">
      <path d="M5.877,8.195C2.415,12.147.307,17.248,0,22.497h22.497V0c-6.349.361-12.457,3.395-16.62,8.195ZM19.49,3.436v16.054H3.441c.75-3.425,2.368-6.654,4.707-9.326,2.965-3.419,6.983-5.779,11.342-6.729ZM22.497,48v-22.497H0c.522,11.783,10.715,21.975,22.497,22.497ZM19.49,44.585c-7.801-1.703-14.372-8.275-16.075-16.075h16.075v16.075ZM25.503,25.503v22.497c11.783-.522,21.975-10.715,22.497-22.497h-22.497ZM28.51,44.585v-16.075h16.075c-1.703,7.801-8.275,14.372-16.075,16.075Z"/>
    </g>
  </g>
</svg>