<?xml version="1.0" encoding="utf-8"?>
<!-- Generator: Adobe Illustrator 22.1.0, SVG Export Plug-In . SVG Version: 6.00 Build 0)  -->
<svg version="1.1" id="Layer_1" xmlns="http://www.w3.org/2000/svg" xmlns:xlink="http://www.w3.org/1999/xlink" x="0px" y="0px"
	 viewBox="0 0 48 48" enable-background="new 0 0 48 48" xml:space="preserve">
<path fill="#B1B5B6" d="M47.7,23.2L24.8,0.3C24.6,0.1,24.3,0,24,0s-0.6,0.1-0.8,0.3L0.3,23.2c-0.4,0.4-0.4,1.1,0,1.6l22.9,22.9
	c0.2,0.2,0.5,0.3,0.8,0.3s0.6-0.1,0.8-0.3l22.9-22.9C48.1,24.4,48.1,23.6,47.7,23.2z M47,24.1L24.1,47h-0.2L1,24.1v-0.2L23.9,1h0.2
	L47,23.9V24.1z M24,9L13,20h8v19h6V20h8L24,9z"/>
</svg>
