<?xml version="1.0" encoding="utf-8"?>
<!-- Generator: Adobe Illustrator 22.1.0, SVG Export Plug-In . SVG Version: 6.00 Build 0)  -->
<svg version="1.1" id="Layer_1" xmlns="http://www.w3.org/2000/svg" xmlns:xlink="http://www.w3.org/1999/xlink" x="0px" y="0px"
	 viewBox="0 0 48 48" enable-background="new 0 0 48 48" xml:space="preserve">
<path fill="#B1B5B6" d="M24,0C10.7,0,0,10.7,0,24s10.7,24,24,24s24-10.7,24-24S37.3,0,24,0z M37.9,33.8l-2.1,2.1l-1.2,1.2l-1,0.9
	L24,28.3L14.4,38l-2.2-2.1l-1.1-1.1l-1-1l9.7-9.8l-9.7-9.8l1-1l1.1-1.1l2.2-2.1l9.6,9.7l9.6-9.7l1,0.9l1.2,1.2l2.1,2.1L28.2,24
	L37.9,33.8z"/>
</svg>
