<?xml version="1.0" encoding="utf-8"?>
<!-- Generator: Adobe Illustrator 22.1.0, SVG Export Plug-In . SVG Version: 6.00 Build 0)  -->
<svg version="1.1" id="Layer_1" xmlns="http://www.w3.org/2000/svg" xmlns:xlink="http://www.w3.org/1999/xlink" x="0px" y="0px"
	 viewBox="0 0 48 48" enable-background="new 0 0 48 48" xml:space="preserve">
<path fill="#5C85FB" d="M0.3,24.8l22.9,22.9c0.2,0.2,0.5,0.3,0.8,0.3s0.6-0.1,0.8-0.3l22.9-22.9c0.4-0.4,0.4-1.1,0-1.6L24.8,0.3
	C24.6,0.1,24.3,0,24,0s-0.6,0.1-0.8,0.3L0.3,23.2C-0.1,23.6-0.1,24.4,0.3,24.8z M1,23.9L23.9,1h0.2L47,23.9v0.2L24.1,47h-0.2L1,24.1
	V23.9z M24,39l11-11h-8V9h-6v19h-8L24,39z"/>
</svg>
