<?xml version="1.0" encoding="utf-8"?>
<!-- Generator: Adobe Illustrator 22.1.0, SVG Export Plug-In . SVG Version: 6.00 Build 0)  -->
<svg version="1.1" id="Layer_1" xmlns="http://www.w3.org/2000/svg" xmlns:xlink="http://www.w3.org/1999/xlink" x="0px" y="0px"
	 viewBox="0 0 48 48" enable-background="new 0 0 48 48" xml:space="preserve">
<path fill="#FDB06C" d="M1.8,43.5h44.4L24,5L1.8,43.5z M26.5,42h-5v-5.3h5V42z M26.5,31.3h-5V14h5V31.3z"/>
<path id="exclamation" fill="#171B1D" d="M47.7,43.3L25,3.7C24.7,3.2,24.4,3,24,3s-0.7,0.2-1,0.7L0.2,43.3c-0.5,1-0.1,1.7,1,1.7
	h45.5C47.8,45,48.3,44.2,47.7,43.3z M1.8,43.5L24,5l22.2,38.5H1.8z M21.5,36.7h5V42h-5V36.7z M21.5,14h5v17.3h-5V14z"/>
</svg>
