<?xml version="1.0" encoding="utf-8"?>
<!-- Generator: Adobe Illustrator 22.1.0, SVG Export Plug-In . SVG Version: 6.00 Build 0)  -->
<svg version="1.1" id="Layer_1" xmlns="http://www.w3.org/2000/svg" xmlns:xlink="http://www.w3.org/1999/xlink" x="0px" y="0px"
	 viewBox="0 0 48 48" enable-background="new 0 0 48 48" xml:space="preserve">
<path id="diamond" fill="#C8840E" d="M47.7,23.2L24.8,0.3c-0.5-0.4-1.1-0.4-1.6,0L0.3,23.2c-0.4,0.5-0.4,1.1,0,1.6l22.9,22.9
	c0.5,0.4,1.1,0.4,1.6,0l22.9-22.9C48.1,24.3,48.1,23.7,47.7,23.2z M47,24.1L24.1,47h-0.2L1,24.1v-0.2L23.9,1h0.2L47,23.9V24.1z"/>
<path id="abnormal" fill="#C8840E" d="M24,8c3.9,3.9,4,13,4,13H15v6c0,10,9,13,9,13c-3.9-3.9-4-13-4-13h13v-6C33,11,24,8,24,8z"/>
</svg>
