<?xml version="1.0" encoding="utf-8"?>
<!-- Generator: Adobe Illustrator 22.1.0, SVG Export Plug-In . SVG Version: 6.00 Build 0)  -->
<svg version="1.1" id="Layer_1" xmlns="http://www.w3.org/2000/svg" xmlns:xlink="http://www.w3.org/1999/xlink" x="0px" y="0px"
	 viewBox="0 0 48 48" enable-background="new 0 0 48 48" xml:space="preserve">
<path id="device" fill="#6F7476" d="M22,36c0-3,0.9-5.7,2.5-8H9V8h19v16.5c0.9-0.6,1.9-1.2,3-1.6V2c0-1.1-0.9-2-2-2H8
	C6.9,0,6,0.9,6,2v34c0,1.1,0.9,2,2,2h14.2C22.1,37.3,22,36.7,22,36z M15.5,3.9c0-0.5,0.4-0.9,0.9-0.9h4.1c0.5,0,0.9,0.4,0.9,0.9V4
	c0,0.5-0.4,0.9-0.9,0.9h-4.1C15.9,4.9,15.5,4.5,15.5,3.9L15.5,3.9z M18.5,35c-1.1,0-2-0.9-2-2s0.9-2,2-2s2,0.9,2,2
	C20.5,34.1,19.6,35,18.5,35z"/>
<path id="circle" fill="#427C1F" d="M36,24c6.6,0,12,5.4,12,12s-5.4,12-12,12s-12-5.4-12-12S29.4,24,36,24z"/>
<polygon id="check" fill="#B1B5B6" points="44.4,32.1 42.3,30 34.2,38.1 29.8,33.7 27.7,35.8 34.2,42.3 "/>
</svg>
