<?xml version="1.0" encoding="utf-8"?>
<!-- Generator: Adobe Illustrator 22.1.0, SVG Export Plug-In . SVG Version: 6.00 Build 0)  -->
<svg version="1.1" id="Layer_1" xmlns="http://www.w3.org/2000/svg" xmlns:xlink="http://www.w3.org/1999/xlink" x="0px" y="0px"
	 viewBox="0 0 48 48" enable-background="new 0 0 48 48" xml:space="preserve">
<path fill="#B1B5B6" d="M24,0L24,0C10.7,0,0,10.8,0,24c0,13.3,10.7,24,24,24s24-10.7,24-24S37.3,0,24,0z M26.7,36.8l-0.2,1.7
	c-4.4,3-10.7,2.1-8.1-5.1c1-2.7,4.5-7.8,3.5-10.7c-0.4-1.2-1.8-1.2-3.2-0.7l0.2-1.6c2.4-1.7,5.4-2.6,7.6-1.2
	c3.9,2.5-1.7,11.7-2.4,13.5C22.7,36.5,24.4,37.4,26.7,36.8z M26.5,15c-1.9,0-3.5-1.6-3.5-3.5S24.6,8,26.5,8S30,9.6,30,11.5
	S28.4,15,26.5,15z"/>
</svg>
