<?xml version="1.0" encoding="utf-8"?>
<!-- Generator: Adobe Illustrator 22.1.0, SVG Export Plug-In . SVG Version: 6.00 Build 0)  -->
<svg version="1.1" id="Layer_1" xmlns="http://www.w3.org/2000/svg" xmlns:xlink="http://www.w3.org/1999/xlink" x="0px" y="0px"
	 viewBox="0 0 48 48" enable-background="new 0 0 48 48" xml:space="preserve">
<path id="clock" fill="#6F7476" d="M25.3,25.9l-5.2-5.2v-8.5c0.1-0.7-0.4-1.3-1-1.4c-0.7-0.1-1.3,0.4-1.4,1c0,0.1,0,0.2,0,0.3V21
	c0,0.5,0.2,0.9,0.5,1.2l5.3,5.3c0.5,0.5,1.2,0.6,1.8,0.2c0.5-0.4,0.6-1.1,0.3-1.6C25.5,26.1,25.4,26,25.3,25.9z M32.5,10.9l1.7-1.7
	c0.6-0.6,0.6-1.7,0-2.3l-1.1-1.1c-0.6-0.6-1.7-0.6-2.3,0L29,7.6c-1.5-1.1-3.3-2-5.1-2.6c-0.9-0.3-1.8-0.5-2.7-0.6V1.6
	c0-0.9-0.7-1.6-1.6-1.6l0,0h-1.5c-0.9,0-1.6,0.7-1.6,1.6l0,0v2.7C7.2,5.7,0.9,14.4,2.3,23.7C3.6,32,10.7,38.1,19,38.1
	c1,0,1.9-0.1,2.9-0.3l-1.4-1.4c-0.2-0.2-0.4-0.5-0.5-0.8c-0.3,0-0.7,0.1-1,0.1c-8.1,0-14.6-6.5-14.6-14.6C4.4,13,10.9,6.5,19,6.5
	c1.5,0,2.9,0.2,4.3,0.7c5.9,1.8,9.9,7.1,10.2,13.2c0.7-0.5,1.6-0.6,2.4-0.2C35.7,16.8,34.5,13.6,32.5,10.9z"/>
<path id="diamond" fill="#FDB06C" d="M34.9,21.8c-0.3,0-0.6,0.1-0.8,0.3l-12,12c-0.5,0.4-0.5,1.2-0.1,1.6c0,0,0,0.1,0.1,0.1L34,47.6
	c0.5,0.4,1.1,0.4,1.6,0l11.9-11.9c0.5-0.4,0.5-1.2,0.1-1.6c0,0,0-0.1-0.1-0.1L35.7,22.2C35.5,22,35.2,21.8,34.9,21.8z"/>
<path id="diamondStroke" fill="#171B1D" d="M34.9,22.9l12,11.9V35L35,46.9h-0.2L22.9,35v-0.2l11.9-11.9H34.9 M34.9,21.8
	c-0.3,0-0.6,0.1-0.8,0.3l-12,12c-0.5,0.4-0.5,1.2-0.1,1.6c0,0,0,0.1,0.1,0.1L34,47.6c0.5,0.4,1.1,0.4,1.6,0l11.9-11.9
	c0.5-0.4,0.5-1.2,0.1-1.6c0,0,0-0.1-0.1-0.1L35.7,22.2C35.5,22,35.2,21.8,34.9,21.8z"/>
<path id="exclamation" fill="#171B1D" d="M34,39h2v2h-2V39z M34,28h2v9h-2V28z"/>
</svg>
