<?xml version="1.0" encoding="utf-8"?>
<!-- Generator: Adobe Illustrator 22.1.0, SVG Export Plug-In . SVG Version: 6.00 Build 0)  -->
<svg version="1.1" id="Layer_1" xmlns="http://www.w3.org/2000/svg" xmlns:xlink="http://www.w3.org/1999/xlink" x="0px" y="0px"
	 viewBox="0 0 48 48" enable-background="new 0 0 48 48" xml:space="preserve">
<path id="calendar" fill="#B1B5B6" d="M31,5V1.8c0-1-0.8-1.8-1.8-1.8l0,0h-1.5c-1,0-1.8,0.8-1.8,1.8l0,0V5H11V1.8
	c0-1-0.8-1.8-1.8-1.8l0,0H7.8C6.8,0,6,0.8,6,1.8l0,0V5H2v33h19.1C21,37.3,21,36.7,21,36v-1H5V17h27v4.6c1-0.3,2-0.4,3-0.5V5H31z"/>
<path id="circle" fill="#427C1F" d="M36,24c6.6,0,12,5.4,12,12s-5.4,12-12,12s-12-5.4-12-12S29.4,24,36,24z"/>
<path id="check" fill="#B1B5B6" d="M34.1,42.4l-6.5-6.5l2.1-2.1l4.4,4.3l8.2-8.1l2.1,2.1L34.1,42.4z"/>
</svg>
