<?xml version="1.0" encoding="utf-8"?>
<!-- Generator: Adobe Illustrator 22.1.0, SVG Export Plug-In . SVG Version: 6.00 Build 0)  -->
<svg version="1.1" id="Layer_1" xmlns="http://www.w3.org/2000/svg" xmlns:xlink="http://www.w3.org/1999/xlink" x="0px" y="0px"
	 viewBox="0 0 48 48" enable-background="new 0 0 48 48" xml:space="preserve">
<path d="M45,12v24H3V12H45 M48,9H0v30h48V9L48,9z M6.713,16.689c1.101-0.18,2.74-0.314,4.56-0.314c2.246,0,3.818,0.336,4.896,1.189
	c0.898,0.719,1.393,1.775,1.393,3.168c0,1.932-1.37,3.256-2.673,3.729v0.066c1.056,0.428,1.64,1.438,2.021,2.83
	c0.472,1.707,0.943,3.684,1.235,4.268h-3.504c-0.247-0.426-0.606-1.662-1.056-3.525c-0.404-1.887-1.056-2.404-2.448-2.426h-1.033
	v5.951H6.713V16.689z M10.105,23.203h1.348c1.707,0,2.718-0.854,2.718-2.18c0-1.393-0.943-2.088-2.516-2.111
	c-0.831,0-1.303,0.068-1.55,0.113V23.203z M29.042,25.225h-5.57v3.594h6.222v2.807h-9.658V16.486h9.344v2.809h-5.907v3.145h5.57
	V25.225z M32.033,16.486h9.254v2.809h-5.817v3.459h4.341v2.785h-4.341v6.086h-3.437V16.486z"/>
</svg>
