<?xml version="1.0" encoding="utf-8"?>
<!-- Generator: Adobe Illustrator 22.1.0, SVG Export Plug-In . SVG Version: 6.00 Build 0)  -->
<svg version="1.1" id="Layer_1" xmlns="http://www.w3.org/2000/svg" xmlns:xlink="http://www.w3.org/1999/xlink" x="0px" y="0px"
	 viewBox="0 0 48 34.286" enable-background="new 0 0 48 34.286" xml:space="preserve">
<g id="ce_2_">
	<path id="CE_x5F_2_3_" d="M17.143,0c0.614,0,1.219,0.035,1.816,0.098v5.204c-0.594-0.091-1.197-0.153-1.816-0.153
		C10.53,5.15,5.15,10.53,5.15,17.143c0,6.613,5.38,11.993,11.993,11.993c0.619,0,1.222-0.062,1.816-0.153v5.204
		c-0.597,0.063-1.203,0.098-1.816,0.098C7.675,34.286,0,26.611,0,17.143C0,7.675,7.675,0,17.143,0z M46.184,5.15
		c0.619,0,1.222,0.062,1.816,0.153V0.098C47.403,0.035,46.797,0,46.184,0c-9.468,0-17.143,7.675-17.143,17.143
		c0,9.468,7.675,17.143,17.143,17.143c0.614,0,1.219-0.035,1.816-0.098v-5.204c-0.594,0.091-1.197,0.153-1.816,0.153
		c-5.737,0-10.54-4.051-11.713-9.442h10.106v-5.073H34.463C35.625,9.216,40.436,5.15,46.184,5.15z"/>
</g>
</svg>
