<?xml version="1.0" encoding="utf-8"?>
<!-- Generator: Adobe Illustrator 22.1.0, SVG Export Plug-In . SVG Version: 6.00 Build 0)  -->
<svg version="1.1" id="Layer_1" xmlns="http://www.w3.org/2000/svg" xmlns:xlink="http://www.w3.org/1999/xlink" x="0px" y="0px"
	 viewBox="0 0 48 48" enable-background="new 0 0 48 48" xml:space="preserve">
<path d="M42.746,9c-2.28,0-4.508-0.85-6.405-2.115c-1.714-1.143-3.683-1.71-5.646-1.71c-2.205,0-4.404,0.714-6.233,2.131L24,7.663
	l-0.462-0.357c-1.829-1.416-4.028-2.131-6.233-2.131c-1.964,0-3.932,0.567-5.646,1.71C9.762,8.15,7.534,9,5.254,9H0v34h5.254
	c2.28,0,4.508-0.85,6.405-2.115c1.714-1.143,3.682-1.71,5.646-1.71c1.826,0,3.646,0.498,5.257,1.471
	c0.142,0.548,0.626,0.916,1.159,0.916c0.093,0,0.463,0,0.556,0c0.534,0,1.017-0.368,1.159-0.916
	c1.612-0.973,3.431-1.471,5.257-1.471c1.964,0,3.932,0.567,5.646,1.71C38.238,42.15,40.466,43,42.746,43H48V9H42.746z M9.995,38.389
	C8.893,39.124,7.175,40,5.254,40H3V12h2.254c2.709,0,5.5-0.906,8.069-2.619c1.183-0.789,2.561-1.206,3.983-1.206
	c1.583,0,3.144,0.534,4.396,1.503l0.798,0.618v26.95c-1.634-0.699-3.407-1.07-5.195-1.07C14.695,36.175,12.167,36.941,9.995,38.389z
	 M45,40h-2.254c-1.921,0-3.639-0.876-4.741-1.611c-2.172-1.448-4.7-2.214-7.31-2.214c-1.788,0-3.56,0.371-5.195,1.07v-26.95
	l0.798-0.618c1.252-0.969,2.813-1.503,4.397-1.503c1.422,0,2.799,0.417,3.982,1.206c2.57,1.713,5.36,2.619,8.069,2.619H45V40z
	 M37,29h2v2h-7v-2h2v-6h-2v-2h5v1v1V29z M33,17c0-1.105,0.895-2,2-2s2,0.895,2,2s-0.895,2-2,2S33,18.105,33,17z"/>
</svg>
