<?xml version="1.0" encoding="utf-8"?>
<!-- Generator: Adobe Illustrator 22.1.0, SVG Export Plug-In . SVG Version: 6.00 Build 0)  -->
<svg version="1.1" id="Layer_1" xmlns="http://www.w3.org/2000/svg" xmlns:xlink="http://www.w3.org/1999/xlink" x="0px" y="0px"
	 viewBox="0 0 93 30" enable-background="new 0 0 93 30" xml:space="preserve">
<path d="M47.996,0.046h-3h-45v30h45h3h45v-30H47.996z M44.996,27.046h-42v-24h42V27.046z M89.996,27.046h-42v-24h42V27.046z
	 M55.105,16.628h1.033c1.393,0.021,2.044,0.539,2.448,2.426c0.449,1.863,0.809,3.1,1.056,3.525h3.504
	c-0.292-0.584-0.764-2.561-1.235-4.268c-0.382-1.393-0.966-2.402-2.021-2.83v-0.066c1.303-0.473,2.673-1.797,2.673-3.729
	c0-1.393-0.494-2.449-1.393-3.168c-1.078-0.854-2.65-1.189-4.896-1.189c-1.819,0-3.459,0.135-4.56,0.314v14.936h3.392V16.628z
	 M55.105,9.979c0.247-0.045,0.719-0.113,1.55-0.113c1.572,0.023,2.516,0.719,2.516,2.111c0,1.326-1.011,2.18-2.718,2.18h-1.348
	V9.979z M74.694,22.579h-9.658V7.44h9.344v2.809h-5.907v3.145h5.57v2.785h-5.57v3.594h6.222V22.579z M80.179,17.147h3.156
	c1.646,0,2.913-0.37,3.801-1.11c0.887-0.741,1.331-2.005,1.331-3.794c0-1.638-0.446-2.848-1.338-3.629
	c-0.893-0.782-2.089-1.172-3.589-1.172h-6.508v15.139h3.146V17.147z M80.179,10.073h2.854c0.723,0,1.284,0.168,1.686,0.504
	c0.4,0.336,0.602,0.898,0.602,1.686c0,0.789-0.201,1.364-0.602,1.728c-0.401,0.363-0.963,0.545-1.686,0.545h-2.854V10.073z
	 M21.65,22.579h-9.658V7.44h9.344v2.809h-5.907v3.145h5.57v2.785h-5.57v3.594h6.222V22.579z M25.169,20.578
	c-1.178-1.341-1.767-3.179-1.767-5.514c0-2.525,0.67-4.471,2.01-5.838c1.164-1.191,2.646-1.786,4.446-1.786
	c2.407,0,4.166,0.798,5.28,2.394c0.436,0.636,0.722,1.273,0.871,1.912l-2.989,0.516c-0.178-0.556-0.395-0.995-0.655-1.299
	c-0.538-0.628-1.336-0.942-2.393-0.942c-1.077,0-1.927,0.443-2.547,1.329c-0.622,0.887-0.932,2.141-0.932,3.763
	c0,1.622,0.328,2.837,0.984,3.645c0.656,0.808,1.489,1.212,2.5,1.212c1.037,0,1.827-0.347,2.37-1.04
	c0.23-0.285,0.43-0.681,0.6-1.184l2.914,0.503c-0.341,1.127-0.918,2.08-1.747,2.85c-1.064,0.987-2.427,1.482-4.091,1.482
	C27.964,22.579,26.347,21.912,25.169,20.578z"/>
</svg>
