<?xml version="1.0" encoding="utf-8"?>
<!-- Generator: Adobe Illustrator 22.1.0, SVG Export Plug-In . SVG Version: 6.00 Build 0)  -->
<svg version="1.1" id="Layer_1" xmlns="http://www.w3.org/2000/svg" xmlns:xlink="http://www.w3.org/1999/xlink" x="0px" y="0px"
	 width="48px" height="48px" viewBox="0 0 48 48" enable-background="new 0 0 48 48" xml:space="preserve">
<path fill="#FFFFFF" d="M33.7,41.6C27,46.9,17.4,45.9,12,39.2c0-0.1-0.1-0.1-0.1-0.2c-4.6-5.8-4.6-13.9,0-19.7
	c5.7-6.8,9.7-11.7,12-14.5c2.3,2.8,6.4,7.8,12.2,14.7C41.5,26.3,40.4,36.1,33.7,41.6z"/>
<path d="M38.4,17.6C28.7,5.9,23.9,0,23.9,0S19.1,5.9,9.5,17.5c-5.4,6.9-5.4,16.5,0,23.4c6.3,8,17.8,9.4,25.8,3.2
	c0.1,0,0.1-0.1,0.2-0.2C43.5,37.4,44.8,25.7,38.4,17.6z M12,39.2c0-0.1-0.1-0.1-0.1-0.2c-4.6-5.8-4.6-13.9,0-19.7
	c5.7-6.8,9.7-11.7,12-14.5c2.3,2.8,6.4,7.8,12.2,14.7c5.4,6.8,4.3,16.6-2.4,22.1C27,46.9,17.4,45.9,12,39.2z"/>
</svg>
