<?xml version="1.0" encoding="utf-8"?>
<!-- Generator: Adobe Illustrator 22.1.0, SVG Export Plug-In . SVG Version: 6.00 Build 0)  -->
<svg version="1.1" id="Layer_1" xmlns="http://www.w3.org/2000/svg" xmlns:xlink="http://www.w3.org/1999/xlink" x="0px" y="0px"
	 viewBox="0 0 48 48" style="enable-background:new 0 0 48 48;" xml:space="preserve">
<style type="text/css">
	.st0{fill:#FFFFFF;}
</style>
<path id="fill" class="st0" d="M24.1,45.6c-2-2.4-6.4-7.8-13.3-16.2C4.8,22,6,11.2,13.4,5.2c7.3-5.8,17.9-4.7,23.7,2.6
	c0,0.1,0.1,0.1,0.1,0.2c5,6.3,5,15.2,0,21.5C30.5,37.8,26,43.2,24.1,45.6z"/>
<path id="outline" d="M24,0v3l0,0c4.7,0,9.2,2.2,12.1,5.9c4.6,5.8,4.6,13.9,0,19.7c-5.7,6.9-9.7,11.8-12.1,14.6
	c-2.3-2.8-6.4-7.8-12.2-14.7c-5.4-6.8-4.3-16.6,2.4-22.1C17.1,4.2,20.5,3,24,3L24,0 M24,0c-4.2,0-8.2,1.4-11.5,4.1
	c-8,6.5-9.3,18.2-2.9,26.3C19.3,42.1,24.1,48,24.1,48s4.8-5.9,14.4-17.5c5.4-6.9,5.4-16.5,0-23.4C35,2.6,29.6,0,24,0L24,0z"/>
</svg>
