<?xml version="1.0" encoding="utf-8"?>
<!-- Generator: Adobe Illustrator 22.1.0, SVG Export Plug-In . SVG Version: 6.00 Build 0)  -->
<svg version="1.1" id="Layer_1" xmlns="http://www.w3.org/2000/svg" xmlns:xlink="http://www.w3.org/1999/xlink" x="0px" y="0px"
	 width="48px" height="48px" viewBox="0 0 48 48" enable-background="new 0 0 48 48" xml:space="preserve">
<polygon fill="#FFFFFF" points="33.9,26.1 43.8,36 36,43.8 26.1,33.9 24,31.8 21.9,33.9 12,43.8 4.2,36 14.1,26.1 16.2,24 
	14.1,21.9 4.2,12 12,4.2 21.9,14.1 24,16.2 26.1,14.1 36,4.2 43.8,12 33.9,21.9 31.8,24 "/>
<path d="M48,12L36,0L24,12L12,0L0,12l12,12L0,36l12,12l12-12l12,12l12-12L36,24L48,12z M36,43.8l-9.9-9.9L24,31.8l-2.1,2.1L12,43.8
	L4.2,36l9.9-9.9l2.1-2.1l-2.1-2.1L4.2,12L12,4.2l9.9,9.9l2.1,2.1l2.1-2.1L36,4.2l7.8,7.8l-9.9,9.9L31.8,24l2.1,2.1l9.9,9.9L36,43.8z
	"/>
</svg>
