<?xml version="1.0" encoding="utf-8"?>
<!-- Generator: Adobe Illustrator 22.1.0, SVG Export Plug-In . SVG Version: 6.00 Build 0)  -->
<svg version="1.1" id="Layer_1" xmlns="http://www.w3.org/2000/svg" xmlns:xlink="http://www.w3.org/1999/xlink" x="0px" y="0px"
	 width="48px" height="48px" viewBox="0 0 48 48" enable-background="new 0 0 48 48" xml:space="preserve">
<path fill="#FFFFFF" d="M36.1,28.6c-5.7,6.9-9.7,11.8-12.1,14.6c-2.3-2.8-6.4-7.8-12.2-14.7c-5.4-6.8-4.3-16.6,2.4-22.1
	C17.1,4.2,20.5,3,24,3c4.7,0,9.2,2.2,12.1,5.9C40.7,14.7,40.7,22.8,36.1,28.6z"/>
<path d="M38.5,7.1C35,2.6,29.6,0,24,0c-4.2,0-8.2,1.4-11.5,4.1c-8,6.5-9.3,18.2-2.9,26.3C19.3,42.1,24.1,48,24.1,48
	s4.8-5.9,14.4-17.5C43.9,23.6,43.9,14,38.5,7.1z M11.8,28.5c-5.4-6.8-4.3-16.6,2.4-22.1C17.1,4.2,20.5,3,24,3
	c4.7,0,9.2,2.2,12.1,5.9c4.6,5.8,4.6,13.9,0,19.7c-5.7,6.9-9.7,11.8-12.1,14.6C21.7,40.4,17.6,35.4,11.8,28.5z"/>
</svg>
