<?xml version="1.0" encoding="utf-8"?>
<!-- Generator: Adobe Illustrator 22.1.0, SVG Export Plug-In . SVG Version: 6.00 Build 0)  -->
<svg version="1.1" id="Layer_1" xmlns="http://www.w3.org/2000/svg" xmlns:xlink="http://www.w3.org/1999/xlink" x="0px" y="0px"
	 viewBox="0 0 48 48" enable-background="new 0 0 48 48" xml:space="preserve">
<circle id="fill" fill="#FFFFFF" cx="24" cy="24" r="23.5"/>
<path id="lines" d="M45.49,34.685c0.116-0.233,0.227-0.468,0.336-0.705c0.1-0.211,0.2-0.419,0.285-0.632
	c0.185-0.437,0.353-0.883,0.513-1.333c0.055-0.157,0.108-0.316,0.161-0.475c0.353-1.068,0.629-2.16,0.828-3.267
	c0.006-0.033,0.015-0.065,0.021-0.1l0,0C47.876,26.795,47.999,25.399,48,24c0-0.821-0.041-1.632-0.122-2.432l0,0
	c-0.074-0.742-0.188-1.471-0.329-2.191c-0.014-0.074-0.025-0.15-0.04-0.225c-0.066-0.32-0.142-0.635-0.22-0.95
	c-0.018-0.074-0.033-0.149-0.052-0.222c-0.09-0.349-0.19-0.694-0.3-1.037l-0.026-0.092c-0.022-0.069-0.039-0.14-0.062-0.21
	l-0.007,0.008c-0.494-1.537-1.144-3.02-1.939-4.425l0.014-0.014c-0.087-0.154-0.19-0.3-0.281-0.45
	c-0.139-0.234-0.283-0.464-0.43-0.693c-0.286-0.449-0.586-0.887-0.9-1.314c-0.064-0.086-0.128-0.172-0.193-0.257
	c-0.206-0.272-0.4-0.554-0.615-0.816l-0.017,0.017c-0.958-1.158-2.023-2.224-3.181-3.183l0.017-0.017
	c-0.262-0.217-0.544-0.409-0.816-0.615c-0.085-0.065-0.171-0.129-0.257-0.193c-0.428-0.315-0.866-0.615-1.314-0.9
	c-0.229-0.147-0.459-0.291-0.693-0.43c-0.152-0.091-0.3-0.194-0.45-0.281l-0.014,0.014c-1.405-0.795-2.888-1.445-4.425-1.939
	l0.008-0.007c-0.07-0.023-0.142-0.04-0.212-0.062c-0.027-0.009-0.055-0.016-0.082-0.024c-0.346-0.106-0.694-0.207-1.046-0.3
	c-0.071-0.019-0.143-0.033-0.214-0.051c-0.317-0.078-0.635-0.155-0.957-0.221C28.774,0.475,28.7,0.464,28.624,0.45
	C27.9,0.309,27.175,0.2,26.433,0.121l0,0C25.632,0.04,24.821,0,24,0c-1.401,0.002-2.8,0.126-4.18,0.37l0,0
	c-0.033,0.006-0.064,0.015-0.1,0.021c-1.108,0.198-2.2,0.476-3.269,0.829c-0.158,0.052-0.316,0.105-0.473,0.16
	c-0.451,0.159-0.9,0.328-1.334,0.513c-0.213,0.09-0.42,0.189-0.63,0.285c-0.238,0.109-0.475,0.22-0.708,0.337
	c-0.911,0.453-1.792,0.963-2.638,1.527L10.46,4.184C7.993,5.868,5.863,8,4.18,10.468c-0.048,0.069-0.095,0.138-0.142,0.208
	c-0.564,0.846-1.074,1.727-1.527,2.638c-0.117,0.233-0.228,0.47-0.337,0.708c-0.1,0.21-0.195,0.417-0.285,0.63
	c-0.185,0.437-0.354,0.883-0.513,1.334c-0.055,0.157-0.109,0.314-0.16,0.473c-0.353,1.069-0.631,2.161-0.829,3.269
	c-0.006,0.033-0.015,0.064-0.021,0.1l0,0C0.124,21.205,0.001,22.601,0,24c0,0.821,0.041,1.632,0.122,2.432l0,0
	C0.2,27.175,0.309,27.9,0.45,28.624c0.014,0.074,0.025,0.15,0.04,0.225c0.066,0.322,0.143,0.64,0.221,0.957
	c0.018,0.071,0.032,0.143,0.051,0.214c0.09,0.352,0.191,0.7,0.3,1.046c0.008,0.027,0.015,0.055,0.024,0.082
	c0.022,0.07,0.039,0.142,0.062,0.212l0.007-0.008c0.494,1.537,1.144,3.02,1.939,4.425L3.08,35.791c0.087,0.154,0.19,0.3,0.281,0.45
	c0.139,0.234,0.283,0.464,0.43,0.693c0.286,0.449,0.586,0.887,0.9,1.314c0.064,0.086,0.128,0.172,0.193,0.257
	c0.206,0.272,0.4,0.554,0.615,0.816l0.017-0.017c0.959,1.158,2.025,2.223,3.184,3.182l-0.017,0.017
	c0.262,0.217,0.544,0.409,0.816,0.615c0.085,0.065,0.171,0.129,0.257,0.193c0.428,0.315,0.866,0.615,1.314,0.9
	c0.229,0.147,0.459,0.291,0.693,0.43c0.152,0.091,0.3,0.194,0.45,0.281l0.014-0.014c1.405,0.795,2.888,1.445,4.425,1.939
	l-0.008,0.007c0.07,0.023,0.141,0.04,0.21,0.062l0.092,0.026c0.343,0.105,0.688,0.205,1.037,0.3
	c0.073,0.019,0.148,0.034,0.222,0.052c0.315,0.078,0.63,0.154,0.95,0.22c0.075,0.015,0.151,0.026,0.225,0.04
	c0.72,0.141,1.449,0.255,2.191,0.329l0,0C22.369,47.961,23.179,48,24,48c1.401-0.002,2.8-0.126,4.18-0.37l0,0
	c0.033-0.006,0.065-0.015,0.1-0.021c1.107-0.199,2.199-0.475,3.267-0.828c0.159-0.053,0.318-0.106,0.475-0.161
	c0.45-0.16,0.9-0.328,1.333-0.513c0.213-0.09,0.421-0.189,0.632-0.285c0.237-0.109,0.472-0.22,0.705-0.336
	c0.912-0.453,1.794-0.963,2.64-1.529l0.206-0.14c2.471-1.686,4.604-3.819,6.29-6.29c0.047-0.068,0.094-0.137,0.14-0.206
	C44.531,36.476,45.039,35.595,45.49,34.685z M1,24c0-1.844,0.223-3.682,0.663-5.473L18.527,1.663C20.318,1.223,22.156,1,24,1
	c0.5,0,1,0.022,1.5,0.054L1.054,25.5C1.022,25,1,24.505,1,24z M1.955,30.549L30.549,1.955c1.559,0.463,3.064,1.092,4.49,1.874
	l-31.21,31.21C3.047,33.613,2.418,32.108,1.955,30.549z M6.231,38.587L38.587,6.231c1.161,0.955,2.227,2.021,3.182,3.182
	L9.413,41.769C8.252,40.814,7.186,39.748,6.231,38.587z M12.961,44.171l31.21-31.21c0.782,1.426,1.411,2.931,1.874,4.49
	L17.451,46.045C15.892,45.582,14.387,44.953,12.961,44.171z M24,47c-0.5,0-1-0.022-1.5-0.054L46.946,22.5C46.978,23,47,23.5,47,24
	c-0.001,1.844-0.223,3.682-0.663,5.473L29.473,46.337C27.682,46.777,25.844,46.999,24,47z"/>
</svg>
