<?xml version="1.0" encoding="utf-8"?>
<!-- Generator: Adobe Illustrator 22.1.0, SVG Export Plug-In . SVG Version: 6.00 Build 0)  -->
<svg version="1.1" id="Layer_1" xmlns="http://www.w3.org/2000/svg" xmlns:xlink="http://www.w3.org/1999/xlink" x="0px" y="0px"
	 viewBox="0 0 48 48" style="enable-background:new 0 0 48 48;" xml:space="preserve">
<style type="text/css">
	.st0{fill:#FFFFFF;}
</style>
<path id="fill" class="st0" d="M24,46.5c-5.2,0-10.1-2.4-13.3-6.5c-5-6.3-5-15.2,0-21.5C17.5,10.2,22,4.8,23.9,2.4
	c2,2.4,6.4,7.8,13.3,16.2c5.9,7.4,4.7,18.2-2.7,24.2C31.6,45.2,27.9,46.5,24,46.5z"/>
<path id="outline" d="M23.9,4.8c2.3,2.8,6.4,7.8,12.2,14.7c5.4,6.8,4.3,16.6-2.4,22.1C27,46.9,17.4,45.9,12,39.2
	c0-0.1-0.1-0.1-0.1-0.2c-4.6-5.8-4.6-13.9,0-19.7C17.6,12.5,21.6,7.6,23.9,4.8 M23.9,0c0,0-4.8,5.9-14.4,17.5
	c-5.4,6.9-5.4,16.5,0,23.4c6.3,8,17.8,9.4,25.8,3.2c0.1,0,0.1-0.1,0.2-0.2c8-6.5,9.3-18.2,2.9-26.3C28.7,5.9,23.9,0,23.9,0z"/>
</svg>
