<?xml version="1.0" encoding="utf-8"?>
<!-- Generator: Adobe Illustrator 22.1.0, SVG Export Plug-In . SVG Version: 6.00 Build 0)  -->
<svg version="1.1" id="Layer_1" xmlns="http://www.w3.org/2000/svg" xmlns:xlink="http://www.w3.org/1999/xlink" x="0px" y="0px"
	 viewBox="0 0 48 48" style="enable-background:new 0 0 48 48;" xml:space="preserve">
<style type="text/css">
	.st0{fill:#FFFFFF;}
</style>
<polygon id="fill" class="st0" points="24,33.9 12,45.9 2.1,36 14.1,24 2.1,12 12,2.1 24,14.1 36,2.1 45.9,12 33.9,24 45.9,36 
	36,45.9 "/>
<path id="outline" d="M36,4.2l7.8,7.8l-9.9,9.9L31.8,24l2.1,2.1l9.9,9.9L36,43.8l-9.9-9.9L24,31.8l-2.1,2.1L12,43.8L4.2,36l9.9-9.9
	l2.1-2.1l-2.1-2.1L4.2,12L12,4.2l9.9,9.9l2.1,2.1l2.1-2.1L36,4.2 M36,0L24,12L12,0L0,12l12,12L0,36l12,12l12-12l12,12l12-12L36,24
	l12-12L36,0z"/>
</svg>
